<svg width="96" height="16" viewBox="0 0 96 16" fill="none" xmlns="http://www.w3.org/2000/svg">
<path d="M7.99992 1.3335L10.0599 5.50683L14.6666 6.18016L11.3333 9.42683L12.1199 14.0135L7.99992 11.8468L3.87992 14.0135L4.66659 9.42683L1.33325 6.18016L5.93992 5.50683L7.99992 1.3335Z" fill="#FFA318" stroke="#FFA318" stroke-linecap="round" stroke-linejoin="round"/>
<path d="M27.9999 1.3335L30.0599 5.50683L34.6666 6.18016L31.3333 9.42683L32.1199 14.0135L27.9999 11.8468L23.8799 14.0135L24.6666 9.42683L21.3333 6.18016L25.9399 5.50683L27.9999 1.3335Z" fill="#FFA318" stroke="#FFA318" stroke-linecap="round" stroke-linejoin="round"/>
<path d="M67.9999 1.3335L70.0599 5.50683L74.6666 6.18016L71.3333 9.42683L72.1199 14.0135L67.9999 11.8468L63.8799 14.0135L64.6666 9.42683L61.3333 6.18016L65.9399 5.50683L67.9999 1.3335Z" fill="#FFA318" stroke="#FFA318" stroke-linecap="round" stroke-linejoin="round"/>
<path d="M47.9999 1.3335L50.0599 5.50683L54.6666 6.18016L51.3333 9.42683L52.1199 14.0135L47.9999 11.8468L43.8799 14.0135L44.6666 9.42683L41.3333 6.18016L45.9399 5.50683L47.9999 1.3335Z" fill="#FFA318" stroke="#FFA318" stroke-linecap="round" stroke-linejoin="round"/>
<path d="M87.9999 1.3335L90.0599 5.50683L94.6666 6.18016L91.3333 9.42683L92.1199 14.0135L87.9999 11.8468L83.8799 14.0135L84.6666 9.42683L81.3333 6.18016L85.9399 5.50683L87.9999 1.3335Z" fill="#FFA318" stroke="#FFA318" stroke-linecap="round" stroke-linejoin="round"/>
</svg>
