<svg width="58" height="58" viewBox="0 0 58 58" fill="none" xmlns="http://www.w3.org/2000/svg">
<path d="M47.125 57.5H10.875C5.14452 57.5 0.5 52.8555 0.5 47.125V10.875C0.5 5.14452 5.14452 0.5 10.875 0.5H47.125C52.8555 0.5 57.5 5.14452 57.5 10.875V47.125C57.5 52.8555 52.8555 57.5 47.125 57.5Z" stroke="#FF0A0A"/>
<path d="M13.2917 35.0681C13.2917 35.3987 13.5234 35.6582 13.8541 35.6582H14.7518C15.3551 34.3275 16.7285 33.3206 18.3232 33.3206C19.918 33.3206 21.2912 34.3275 21.8947 35.6582H33.5643V30.8835H13.2917V35.0681Z" fill="#FF0A0A"/>
<path d="M18.3231 34.582C16.8616 34.582 15.6768 35.7668 15.6768 37.2284C15.6768 38.69 16.8616 39.8748 18.3231 39.8748C19.784 39.8732 20.9679 38.6893 20.9695 37.2284C20.9695 35.7669 19.7847 34.582 18.3231 34.582Z" fill="#FF0A0A"/>
<path d="M45.1956 28.9384L42.6752 27.8306H34.8167V35.6578H36.342C36.9457 34.3272 38.3187 33.3203 39.9134 33.3203C41.5082 33.3203 42.8816 34.3272 43.4848 35.6578H44.9777C45.3083 35.6578 45.54 35.3983 45.54 35.0677V29.5077C45.5483 29.2664 45.4132 29.043 45.1956 28.9384Z" fill="#FF0A0A"/>
<path d="M40.084 23.3177C39.7695 22.7147 39.1415 22.3407 38.4614 22.3515H34.8167V26.5782H41.7762L40.084 23.3177Z" fill="#FF0A0A"/>
<path d="M31.7668 18.125H15.0798C14.0733 18.125 13.2917 18.9536 13.2917 19.9601V29.631H33.5643V19.9601C33.5643 19.9573 33.5644 19.9545 33.5644 19.9516C33.5724 18.9509 32.7676 18.1331 31.7668 18.125Z" fill="#FF0A0A"/>
<path d="M39.9132 34.582C38.4516 34.5821 37.2668 35.7669 37.2668 37.2285C37.2669 38.6901 38.4517 39.8749 39.9133 39.8748C41.3742 39.8732 42.558 38.6893 42.5596 37.2284V37.2283C42.5595 35.7668 41.3747 34.582 39.9132 34.582Z" fill="#FF0A0A"/>
</svg>
