<svg width="171" height="40" viewBox="0 0 171 40" fill="none" xmlns="http://www.w3.org/2000/svg">
<path d="M25.2728 26.1336C25.2728 26.7576 25.2728 27.3895 25.2254 28.0135C25.2114 28.2133 25.1221 28.4003 24.9754 28.5367C24.8288 28.673 24.6358 28.7486 24.4356 28.7481C24.1994 28.754 23.9641 28.7805 23.7325 28.8271C23.3085 28.9351 22.9172 29.1447 22.5924 29.4378C22.2676 29.731 22.0191 30.0988 21.8684 30.5096C21.6157 31.1409 21.6157 31.8452 21.8684 32.4764C22.022 32.8656 22.2593 33.2161 22.5635 33.5033C22.6324 33.5627 22.6885 33.6355 22.7283 33.7173C22.7682 33.7991 22.7911 33.8881 22.7955 33.9789C22.7999 34.0698 22.7859 34.1606 22.7541 34.2458C22.7224 34.3311 22.6737 34.409 22.6109 34.4749C22.4213 34.6881 22.2475 34.9172 22.0422 35.1226C21.6156 35.5439 21.1812 35.9546 20.7388 36.3548C20.6182 36.4593 20.464 36.5168 20.3044 36.5168C20.1448 36.5168 19.9906 36.4593 19.87 36.3548C19.7673 36.2679 19.6804 36.1494 19.5698 36.0626C18.9829 35.5883 18.2368 35.3565 17.4845 35.4148C17.0115 35.4463 16.5571 35.6106 16.1733 35.8888C15.8577 36.094 15.5886 36.3631 15.3834 36.6787C15.1338 37.0969 15.0002 37.574 14.9963 38.061H11.0469C11.0433 38.0084 11.0433 37.9556 11.0469 37.903C11.0003 37.3936 10.81 36.9079 10.4981 36.5023C10.1863 36.0968 9.76576 35.7882 9.28539 35.6123C8.8249 35.4342 8.32212 35.3957 7.83989 35.5017C7.24313 35.5917 6.69014 35.8682 6.2601 36.2916C6.20275 36.3636 6.13072 36.4226 6.0488 36.4645C5.96688 36.5065 5.87696 36.5305 5.78503 36.535C5.6931 36.5395 5.60127 36.5243 5.51565 36.4905C5.43004 36.4567 5.35261 36.4051 5.28853 36.339C4.99565 36.1133 4.71854 35.8679 4.45914 35.6044C4.07209 35.2095 3.70874 34.8145 3.34539 34.388C3.25255 34.264 3.20849 34.1102 3.2216 33.9558C3.23471 33.8014 3.30406 33.6573 3.41648 33.5507C3.88713 33.1272 4.19863 32.5553 4.29923 31.9302C4.39982 31.3051 4.28343 30.6644 3.96941 30.1147C3.73192 29.6957 3.38522 29.349 2.96624 29.1115C2.48478 28.8423 1.93742 28.7137 1.38646 28.7402C1.22398 28.747 1.06516 28.6908 0.943052 28.5834C0.820941 28.476 0.744934 28.3256 0.730844 28.1636C0.730844 27.8003 0.683451 27.4369 0.651855 27.0736C0.651855 27.0183 0.651855 26.9551 0.651855 26.8998V26.6154C0.651855 26.5522 0.651855 26.489 0.651855 26.4338C0.651855 26.0941 0.651854 25.7623 0.715045 25.4306C0.733313 25.3135 0.779358 25.2024 0.849329 25.1067C0.937508 25.0032 1.04799 24.921 1.17248 24.8663C1.29697 24.8116 1.43224 24.7857 1.56813 24.7908C1.92454 24.7935 2.2779 24.725 2.6075 24.5894C2.9371 24.4537 3.2363 24.2537 3.48757 24.0009C3.74435 23.7476 3.94682 23.4447 4.08262 23.1107C4.21843 22.7766 4.28473 22.4183 4.27747 22.0577C4.27168 21.6797 4.18884 21.3067 4.03402 20.9618C3.87919 20.6168 3.65562 20.307 3.37699 20.0514C3.31433 19.9927 3.26445 19.9218 3.23047 19.8429C3.1965 19.7641 3.17915 19.6791 3.17951 19.5933C3.18432 19.3954 3.26325 19.2065 3.40068 19.064C3.9367 18.3754 4.55475 17.7546 5.24114 17.2157C5.3062 17.1575 5.38237 17.113 5.46506 17.085C5.54776 17.0569 5.63526 17.0459 5.72233 17.0525C5.80939 17.0592 5.89422 17.0833 5.9717 17.1236C6.04918 17.1639 6.11773 17.2194 6.17321 17.2868C6.23306 17.3559 6.29916 17.4194 6.37068 17.4764C6.69169 17.7548 7.07194 17.9565 7.48255 18.066C7.89316 18.1755 8.32332 18.1899 8.74036 18.1083C9.19834 18.0291 9.62727 17.8303 9.98375 17.5321C10.3402 17.2339 10.6116 16.8468 10.7704 16.41C10.9098 16.0367 10.9716 15.6389 10.9521 15.241C10.9482 15.0801 11.003 14.9233 11.1062 14.7997C11.2093 14.6762 11.3539 14.5944 11.5129 14.5695C12.3244 14.4866 13.1422 14.4866 13.9537 14.5695C14.1447 14.5862 14.333 14.626 14.5145 14.688C14.6213 14.7317 14.7128 14.806 14.7775 14.9016C14.8421 14.9972 14.8771 15.1098 14.8778 15.2252C14.8556 15.7382 14.9701 16.248 15.2096 16.7023C15.4806 17.1999 15.9004 17.6004 16.4102 17.8476C16.8427 18.0636 17.3271 18.1539 17.8083 18.1083C18.5099 18.0516 19.1682 17.7462 19.6646 17.2473C19.7666 17.1241 19.9119 17.0448 20.0706 17.0257C20.2294 17.0066 20.3894 17.0492 20.5177 17.1446C20.7546 17.3185 20.9814 17.5058 21.197 17.7054C21.7043 18.1376 22.1673 18.6192 22.5793 19.143C22.679 19.2613 22.7337 19.411 22.7337 19.5656C22.7337 19.7203 22.679 19.87 22.5793 19.9882L22.4134 20.1541C22.0973 20.4738 21.866 20.8674 21.7405 21.2991C21.615 21.7309 21.5992 22.1871 21.6946 22.6265C21.7946 23.1743 22.0722 23.6739 22.4845 24.0483C22.7327 24.2734 23.0188 24.4525 23.3297 24.5775C23.7063 24.7293 24.1085 24.807 24.5145 24.8066C24.5992 24.7979 24.6848 24.8062 24.7663 24.831C24.8477 24.8558 24.9234 24.8966 24.9889 24.9511C25.0544 25.0055 25.1083 25.0725 25.1476 25.148C25.1868 25.2236 25.2106 25.3062 25.2175 25.3911C25.2625 25.6521 25.2862 25.9162 25.2886 26.181" fill="#E10600"/>
<path d="M20.4542 26.3074C20.4558 27.7872 20.0184 29.2342 19.1974 30.4653C18.3764 31.6965 17.2087 32.6565 15.842 33.2239C14.4753 33.7912 12.971 33.9405 11.5195 33.6528C10.0679 33.365 8.73431 32.6532 7.68738 31.6074C6.64045 30.5616 5.92724 29.2287 5.63797 27.7775C5.3487 26.3262 5.49637 24.8218 6.0623 23.4545C6.62824 22.0872 7.587 20.9185 8.8173 20.0962C10.0476 19.2739 11.4941 18.835 12.9739 18.835C14.9565 18.835 16.8579 19.622 18.2605 21.0231C19.6631 22.4242 20.4521 24.3248 20.4542 26.3074Z" fill="white"/>
<path d="M17.6977 26.3072C17.6977 27.2446 17.4198 28.1609 16.899 28.9403C16.3782 29.7197 15.638 30.3271 14.772 30.6858C13.906 31.0445 12.9531 31.1384 12.0338 30.9555C11.1144 30.7727 10.2699 30.3213 9.60712 29.6585C8.94431 28.9957 8.49293 28.1512 8.31006 27.2318C8.12719 26.3125 8.22105 25.3596 8.57976 24.4936C8.93847 23.6276 9.54593 22.8874 10.3253 22.3666C11.1047 21.8458 12.021 21.5679 12.9584 21.5679C14.2153 21.5679 15.4208 22.0672 16.3096 22.956C17.1984 23.8448 17.6977 25.0503 17.6977 26.3072Z" fill="#E10600"/>
<path d="M27.3339 4.01635C27.4524 4.34811 27.5472 4.68777 27.6657 5.01952C27.6978 5.13054 27.6853 5.24973 27.6306 5.35159C27.576 5.45346 27.4837 5.52989 27.3734 5.56454C27.243 5.60358 27.1161 5.6538 26.9943 5.71463C26.7757 5.87698 26.6028 6.09308 26.4923 6.34195C26.3819 6.59081 26.3376 6.86401 26.3638 7.13502C26.3901 7.40604 26.4859 7.66567 26.642 7.88874C26.7982 8.11181 27.0093 8.29074 27.2549 8.40817C27.349 8.44823 27.4234 8.52387 27.4619 8.61858C27.5003 8.7133 27.4998 8.81939 27.4603 8.9137C27.405 9.06378 27.3497 9.22176 27.2865 9.36394C27.1365 9.6641 26.9864 9.96426 26.8205 10.2644C26.7784 10.3421 26.7095 10.4017 26.6267 10.4322C26.5438 10.4628 26.4527 10.4621 26.3703 10.4303C26.2992 10.4303 26.2281 10.3592 26.157 10.3355C25.7574 10.1969 25.3203 10.2138 24.9327 10.3829C24.5909 10.542 24.3206 10.8227 24.1746 11.1703C24.0286 11.5179 24.0172 11.9074 24.1428 12.2628L22.0653 13.0053C22.0653 13.0053 22.0653 12.95 22.0259 12.9264C21.9031 12.672 21.7115 12.4572 21.4727 12.3064C21.2339 12.1555 20.9576 12.0748 20.6751 12.0733C20.3964 12.0635 20.1212 12.1378 19.8852 12.2865C19.5936 12.4499 19.3613 12.7016 19.2217 13.0053C19.2047 13.0541 19.1775 13.0987 19.142 13.1361C19.1064 13.1735 19.0632 13.2029 19.0154 13.2223C18.9676 13.2418 18.9161 13.2508 18.8645 13.2488C18.813 13.2468 18.7624 13.2338 18.7162 13.2107C18.517 13.146 18.3218 13.0696 18.1317 12.9816C17.8552 12.8474 17.5866 12.6973 17.3418 12.5472C17.2678 12.4999 17.2145 12.4264 17.1925 12.3414C17.1705 12.2564 17.1815 12.1663 17.2233 12.0891C17.3213 11.9084 17.3804 11.7094 17.3971 11.5045C17.4282 11.2555 17.396 11.0026 17.3035 10.7693C17.211 10.5359 17.0612 10.3297 16.8678 10.1696C16.6627 9.9945 16.4146 9.87726 16.149 9.82997C15.8433 9.77762 15.529 9.81041 15.2407 9.92476C15.1568 9.95923 15.0627 9.95952 14.9786 9.92557C14.8944 9.89163 14.8269 9.82613 14.7904 9.74308C14.7035 9.56141 14.6245 9.37183 14.5377 9.18226C14.5377 9.18226 14.5377 9.12697 14.4903 9.09537L14.435 8.94529C14.435 8.94529 14.435 8.8742 14.435 8.8426C14.3797 8.66093 14.3244 8.48715 14.277 8.30548C14.257 8.24118 14.257 8.1723 14.277 8.108C14.3019 8.03551 14.3434 7.96987 14.3983 7.91637C14.4532 7.86286 14.5199 7.82299 14.593 7.79994C14.9683 7.64958 15.2718 7.361 15.4407 6.99363C15.6097 6.62627 15.6314 6.20809 15.5013 5.82521C15.4264 5.62459 15.3114 5.44132 15.1634 5.28652C15.0153 5.13172 14.8374 5.00863 14.6403 4.92473C14.5956 4.90726 14.5549 4.88069 14.5209 4.8467C14.4869 4.81271 14.4603 4.77204 14.4429 4.72726C14.4036 4.62016 14.4036 4.5026 14.4429 4.3955C14.6017 3.93282 14.8138 3.49015 15.0748 3.07638C15.0977 3.03288 15.1293 2.9946 15.1678 2.96396C15.2062 2.93331 15.2506 2.91098 15.2981 2.89836C15.3456 2.88574 15.3952 2.88311 15.4438 2.89064C15.4924 2.89817 15.5389 2.91569 15.5803 2.9421L15.7146 2.99739C15.9355 3.08398 16.173 3.11971 16.4096 3.10193C16.6461 3.08415 16.8757 3.01333 17.0811 2.89471C17.3154 2.76973 17.5121 2.58454 17.6509 2.35822C17.7898 2.1319 17.8657 1.87264 17.871 1.60718C17.8727 1.38499 17.8297 1.16473 17.7446 0.959466C17.7102 0.874976 17.708 0.780757 17.7386 0.694795C17.7692 0.608834 17.8304 0.53715 17.9105 0.493429C18.3239 0.293347 18.7549 0.132043 19.198 0.0115934C19.3028 -0.00386446 19.4092 -0.00386446 19.514 0.0115934C19.5798 0.0124549 19.6437 0.0333227 19.6973 0.0714206C19.7509 0.109518 19.7917 0.163041 19.8142 0.224865C19.8959 0.501028 20.0516 0.749588 20.2644 0.943668C20.5012 1.15753 20.8 1.29034 21.1175 1.32282C21.3875 1.36042 21.6626 1.31641 21.9074 1.19643C22.2581 1.03812 22.5389 0.757248 22.6973 0.40654C22.7294 0.3227 22.792 0.254112 22.8726 0.214551C22.9532 0.17499 23.0457 0.167385 23.1317 0.193269C23.2899 0.240258 23.4454 0.295631 23.5977 0.359149C23.9431 0.497038 24.2739 0.669031 24.5851 0.872577C24.6562 0.920486 24.709 0.991092 24.7348 1.07287C24.7607 1.15464 24.758 1.24275 24.7273 1.32282L24.6641 1.4413C24.5569 1.67038 24.5087 1.92263 24.5239 2.17509C24.539 2.42756 24.6171 2.67222 24.751 2.88681C24.9108 3.15574 25.1552 3.36408 25.4461 3.47923C25.6178 3.55645 25.8029 3.59938 25.9911 3.60561C26.2193 3.61208 26.4467 3.57729 26.6625 3.50292C26.7059 3.482 26.7531 3.4701 26.8012 3.46796C26.8493 3.46582 26.8973 3.47347 26.9424 3.49046C26.9875 3.50745 27.0286 3.53342 27.0633 3.5668C27.098 3.60017 27.1256 3.64025 27.1444 3.6846C27.216 3.80535 27.2768 3.93224 27.326 4.06375" fill="white"/>
<path d="M24.8146 5.01891C25.0927 5.80023 25.1328 6.64642 24.9301 7.45056C24.7273 8.2547 24.2907 8.98068 23.6755 9.53675C23.0602 10.0928 22.2939 10.454 21.4735 10.5747C20.653 10.6954 19.8151 10.5702 19.0658 10.2148C18.3165 9.85949 17.6893 9.28998 17.2636 8.5783C16.8379 7.86662 16.6326 7.0447 16.6739 6.21642C16.7151 5.38814 17.001 4.59068 17.4954 3.92482C17.9897 3.25896 18.6703 2.75459 19.4513 2.47545C20.4998 2.10287 21.6534 2.16141 22.6589 2.63823C23.6643 3.11505 24.4396 3.97121 24.8146 5.01891Z" fill="#131516"/>
<path d="M23.3612 5.54111C23.543 6.03448 23.5742 6.57074 23.4507 7.08184C23.3273 7.59294 23.0548 8.05585 22.6679 8.41186C22.2809 8.76787 21.797 9.00092 21.2774 9.08146C20.7578 9.16199 20.226 9.08638 19.7494 8.86421C19.2729 8.64204 18.873 8.28333 18.6007 7.83358C18.3283 7.38383 18.1956 6.86331 18.2195 6.33806C18.2434 5.8128 18.4228 5.30649 18.7349 4.88334C19.047 4.46019 19.4778 4.13928 19.9726 3.96133C20.6316 3.72429 21.3575 3.75734 21.9923 4.05325C22.627 4.34917 23.1191 4.88397 23.3612 5.54111Z" fill="white"/>
<path d="M10.7623 7.94195L11.0388 8.77135C11.0641 8.86246 11.0536 8.95977 11.0096 9.04344C10.9655 9.12711 10.8912 9.19082 10.8018 9.22158C10.5558 9.30364 10.3414 9.46032 10.1885 9.66983C10.0356 9.87934 9.95183 10.1313 9.94874 10.3906C9.94382 10.7031 10.0534 11.0065 10.2568 11.2437C10.3909 11.3835 10.5487 11.4985 10.7228 11.5834C10.7618 11.5981 10.7975 11.6206 10.8275 11.6495C10.8576 11.6784 10.8814 11.7131 10.8977 11.7515C10.9139 11.7899 10.9222 11.8312 10.922 11.8729C10.9219 11.9146 10.9132 11.9558 10.8966 11.9941C10.8492 12.1205 10.8018 12.2469 10.7465 12.3654C10.628 12.6181 10.5017 12.8709 10.3674 13.1158C10.3322 13.1792 10.2752 13.2278 10.2069 13.2525C10.1387 13.2772 10.0638 13.2763 9.99613 13.25C9.93418 13.227 9.87353 13.2007 9.81446 13.1711C9.48924 13.0449 9.12862 13.0449 8.8034 13.1711C8.60281 13.2632 8.43087 13.4078 8.30576 13.5897C8.2056 13.732 8.13571 13.8933 8.10039 14.0636C8.05626 14.285 8.07264 14.5143 8.14778 14.7271L6.45741 15.3907C6.46038 15.367 6.46038 15.3432 6.45741 15.3196C6.35705 15.1057 6.19876 14.9243 6.0005 14.7958C5.80225 14.6674 5.57196 14.5971 5.33576 14.5929C5.10434 14.5894 4.87678 14.6524 4.68015 14.7745C4.44311 14.9128 4.25319 15.1192 4.13512 15.367C4.12049 15.407 4.09772 15.4435 4.06825 15.4743C4.03878 15.505 4.00325 15.5293 3.96391 15.5457C3.92457 15.562 3.88227 15.57 3.83968 15.5691C3.79709 15.5683 3.75514 15.5586 3.71648 15.5407C3.55275 15.4858 3.39193 15.4225 3.23464 15.3512C3.00557 15.2406 2.7844 15.1142 2.56323 14.9878C2.50342 14.9475 2.46012 14.887 2.44126 14.8174C2.4224 14.7477 2.42925 14.6736 2.46055 14.6087C2.54226 14.4597 2.59329 14.2958 2.61063 14.1268C2.63637 13.9201 2.60929 13.7103 2.53194 13.5169C2.45458 13.3235 2.32947 13.1529 2.16829 13.021C1.99808 12.8791 1.79395 12.7838 1.57587 12.7445C1.3106 12.6911 1.03542 12.7186 0.785974 12.8235C0.716807 12.8525 0.638987 12.853 0.569454 12.8249C0.499922 12.7968 0.444307 12.7423 0.414723 12.6734C0.343633 12.5154 0.272544 12.3654 0.209352 12.2074L0.138262 12.1363V12.0336C0.138262 12.0336 0.138262 11.9783 0.138262 11.9546C0.090868 11.8045 0.0434745 11.6545 0.0118788 11.5044C-0.0039596 11.4529 -0.0039596 11.3979 0.0118788 11.3464C0.0319421 11.2865 0.0660843 11.2323 0.111441 11.1883C0.156798 11.1443 0.212044 11.1118 0.272542 11.0936C0.429411 11.0362 0.573162 10.9479 0.695277 10.834C0.817391 10.72 0.915384 10.5827 0.983448 10.4301C1.05604 10.2795 1.09699 10.1155 1.10378 9.94842C1.11058 9.78132 1.08306 9.6146 1.02294 9.45855C0.961769 9.29479 0.867892 9.14521 0.747028 9.01892C0.626165 8.89262 0.480848 8.79226 0.319937 8.72395C0.282747 8.7079 0.249415 8.6841 0.22217 8.65413C0.194925 8.62416 0.174395 8.58872 0.161957 8.55017C0.126837 8.46409 0.126837 8.36769 0.161957 8.28161C0.292087 7.89895 0.467082 7.53305 0.683287 7.19156C0.702235 7.15554 0.728308 7.12376 0.759922 7.09813C0.791536 7.07251 0.828032 7.05358 0.867189 7.0425C0.906346 7.03141 0.947348 7.02841 0.987702 7.03367C1.02806 7.03892 1.06692 7.05233 1.10193 7.07307L1.21252 7.12837C1.39543 7.19869 1.59171 7.22739 1.78709 7.21236C1.98248 7.19733 2.17206 7.13895 2.34207 7.04148C2.53074 6.9344 2.68781 6.7794 2.79738 6.59216C2.90695 6.40492 2.96515 6.19207 2.96608 5.97512C2.97121 5.79075 2.93617 5.60747 2.86339 5.43799C2.83549 5.36845 2.83461 5.29099 2.86092 5.22083C2.88723 5.15067 2.93883 5.09289 3.00558 5.05884C3.34422 4.88992 3.69877 4.75498 4.06403 4.656C4.15315 4.64396 4.24348 4.64396 4.3326 4.656C4.38556 4.65924 4.43656 4.67722 4.47984 4.70793C4.52311 4.73864 4.55693 4.78084 4.57746 4.82977C4.64475 5.05972 4.77304 5.26717 4.94871 5.43009C5.14584 5.60388 5.39089 5.71401 5.65172 5.74605C5.87622 5.76875 6.1027 5.73056 6.30733 5.63547C6.60406 5.50284 6.84261 5.26709 6.97874 4.97195C7.00383 4.90251 7.05495 4.84554 7.12129 4.81311C7.18763 4.78068 7.26398 4.77532 7.33419 4.79818C7.46703 4.83104 7.59659 4.87599 7.72124 4.93246C7.99664 5.04787 8.26101 5.18799 8.51113 5.3511C8.57065 5.38985 8.61495 5.44796 8.63654 5.51561C8.65813 5.58327 8.65568 5.6563 8.62962 5.72236L8.58222 5.82504C8.49408 6.01411 8.45443 6.22217 8.46684 6.4304C8.47925 6.63864 8.54334 6.84051 8.65331 7.01778C8.78551 7.2426 8.9882 7.41752 9.22994 7.51541C9.37279 7.57482 9.5255 7.60697 9.68018 7.6102C9.86856 7.62064 10.057 7.59102 10.2331 7.52331C10.3066 7.49089 10.3898 7.48843 10.465 7.51647C10.5403 7.5445 10.6016 7.60081 10.6359 7.67339C10.6899 7.77833 10.7374 7.88649 10.7781 7.99725" fill="white"/>
<path d="M8.77188 8.92108C9.00082 9.56734 9.03304 10.267 8.86447 10.9315C8.69589 11.5961 8.3341 12.1958 7.82481 12.6548C7.31552 13.1138 6.68159 13.4115 6.00313 13.5104C5.32468 13.6092 4.63215 13.5047 4.01308 13.2101C3.394 12.9154 2.87616 12.4439 2.525 11.855C2.17384 11.2662 2.00513 10.5864 2.04018 9.90169C2.07523 9.21697 2.31247 8.55801 2.72192 8.00808C3.13137 7.45816 3.69465 7.04195 4.34058 6.81206C4.77 6.65923 5.22534 6.59256 5.68055 6.61586C6.13576 6.63916 6.58191 6.75198 6.99348 6.94786C7.40505 7.14374 7.77396 7.41884 8.07912 7.75743C8.38427 8.09601 8.61969 8.49143 8.77188 8.92108Z" fill="#131516"/>
<path d="M7.31812 9.43486C7.44919 9.79427 7.47032 10.1845 7.37885 10.556C7.28738 10.9275 7.08743 11.2633 6.80446 11.5208C6.52149 11.7782 6.16831 11.9456 5.78989 12.0017C5.41146 12.0578 5.02491 11.9999 4.67945 11.8356C4.33399 11.6713 4.04525 11.4078 3.85 11.0788C3.65475 10.7499 3.56182 10.3702 3.58305 9.98824C3.60427 9.60628 3.73868 9.23926 3.96918 8.93394C4.19967 8.62861 4.51581 8.39878 4.87735 8.27372C5.35825 8.10332 5.88698 8.12973 6.34851 8.34718C6.81004 8.56463 7.16704 8.95554 7.34182 9.43486" fill="white"/>
<path d="M32.4871 37.1609V39.5461H31.7478V33.2355H33.4817C34.1565 33.2355 34.6787 33.3998 35.0483 33.7284C35.4209 34.057 35.6072 34.5205 35.6072 35.119C35.6072 35.7175 35.4004 36.2075 34.9867 36.5889C34.576 36.9702 34.02 37.1609 33.3189 37.1609H32.4871ZM32.4871 33.9044V36.492H33.2617C33.7721 36.492 34.1609 36.3762 34.4278 36.1444C34.6978 35.9097 34.8327 35.5796 34.8327 35.1542C34.8327 34.321 34.3398 33.9044 33.3541 33.9044H32.4871Z" fill="white"/>
<path d="M40.1444 39.5461H36.7998V33.2355H40.0036V33.9044H37.5392V36.0036H39.8187V36.6681H37.5392V38.8772H40.1444V39.5461Z" fill="white"/>
<path d="M47.7928 39.5461H47.0579V35.3126C47.0579 34.9782 47.0785 34.5689 47.1195 34.0848H47.1019C47.0315 34.3694 46.9684 34.5733 46.9127 34.6965L44.7563 39.5461H44.3955L42.2435 34.7317C42.1819 34.5909 42.1188 34.3753 42.0543 34.0848H42.0367C42.0602 34.3371 42.0719 34.7493 42.0719 35.3214V39.5461H41.359V33.2355H42.3359L44.2723 37.6362C44.4219 37.9736 44.5187 38.2259 44.5627 38.3932H44.5891C44.7153 38.047 44.8165 37.7888 44.8928 37.6186L46.8687 33.2355H47.7928V39.5461Z" fill="white"/>
<path d="M51.9999 39.6518C51.1051 39.6518 50.3878 39.3569 49.848 38.7672C49.3111 38.1775 49.0427 37.4103 49.0427 36.4656C49.0427 35.4505 49.317 34.6408 49.8656 34.0364C50.4142 33.4321 51.1609 33.1299 52.1056 33.1299C52.9769 33.1299 53.6781 33.4233 54.2091 34.01C54.7431 34.5968 55.01 35.364 55.01 36.3116C55.01 37.3414 54.7372 38.1555 54.1915 38.754C53.6458 39.3525 52.9153 39.6518 51.9999 39.6518ZM52.0527 33.7988C51.3897 33.7988 50.8514 34.0379 50.4377 34.5161C50.024 34.9943 49.8172 35.6222 49.8172 36.3996C49.8172 37.1771 50.0181 37.8035 50.4201 38.2787C50.8249 38.7511 51.3516 38.9872 51.9999 38.9872C52.6923 38.9872 53.238 38.7613 53.637 38.3095C54.036 37.8577 54.2355 37.2255 54.2355 36.4128C54.2355 35.5796 54.0419 34.9356 53.6546 34.4809C53.2673 34.0262 52.7334 33.7988 52.0527 33.7988Z" fill="white"/>
<path d="M60.995 39.5461H60.2557V36.6681H56.9904V39.5461H56.251V33.2355H56.9904V36.0036H60.2557V33.2355H60.995V39.5461Z" fill="white"/>
<path d="M66.3815 33.9044H64.5596V39.5461H63.8203V33.9044H62.0028V33.2355H66.3815V33.9044Z" fill="white"/>
<path d="M69.4796 39.2821V38.5648C69.9402 38.8464 70.5006 38.9872 71.1607 38.9872C71.7885 38.9872 72.302 38.7892 72.701 38.3932C73.1029 37.9942 73.3273 37.4411 73.3743 36.7341H70.5798V36.0696H73.3655C73.2892 35.3508 73.0515 34.7934 72.6525 34.3973C72.2565 33.9983 71.7401 33.7988 71.1035 33.7988C70.5079 33.7988 69.9666 33.9249 69.4796 34.1773V33.4027C69.9314 33.2208 70.4727 33.1299 71.1035 33.1299C72.01 33.1299 72.7464 33.435 73.3127 34.0452C73.8789 34.6525 74.162 35.4652 74.162 36.4832C74.162 37.4191 73.8891 38.1819 73.3435 38.7716C72.8007 39.3584 72.0849 39.6518 71.1959 39.6518C70.5182 39.6518 69.9461 39.5285 69.4796 39.2821Z" fill="white"/>
<path d="M79.8037 39.5461H79.0644V33.9044H77.3129C77.1105 35.4945 76.9506 36.6182 76.8332 37.2754C76.7159 37.9325 76.5971 38.4166 76.4768 38.7276C76.3565 39.0386 76.1937 39.2704 75.9883 39.4229C75.7829 39.5725 75.5365 39.6474 75.249 39.6474C75.0172 39.6474 74.8162 39.6166 74.6461 39.5549V38.8596C74.7957 38.9447 74.9615 38.9872 75.1434 38.9872C75.3253 38.9872 75.4954 38.8787 75.6538 38.6616C75.8152 38.4445 75.978 37.8797 76.1423 36.9673C76.3095 36.0549 76.4944 34.811 76.6968 33.2355H79.8037V39.5461Z" fill="white"/>
<path d="M84.8117 39.5461H81.4672V33.2355H84.6709V33.9044H82.2065V36.0036H84.4861V36.6681H82.2065V38.8772H84.8117V39.5461Z" fill="white"/>
<path d="M90.4183 39.5461H89.3885L86.9505 36.6593C86.8595 36.5507 86.8038 36.4774 86.7833 36.4392H86.7657V39.5461H86.0263V33.2355H86.7657V36.2016H86.7833C86.8243 36.137 86.8801 36.0652 86.9505 35.986L89.3093 33.2355H90.229L87.5226 36.2632L90.4183 39.5461Z" fill="white"/>
<path d="M94.9862 33.9044H93.1643V39.5461H92.425V33.9044H90.6075V33.2355H94.9862V33.9044Z" fill="white"/>
<path d="M96.7201 37.1609V39.5461H95.9808V33.2355H97.7147C98.3895 33.2355 98.9117 33.3998 99.2813 33.7284C99.6539 34.057 99.8402 34.5205 99.8402 35.119C99.8402 35.7175 99.6334 36.2075 99.2197 36.5889C98.809 36.9702 98.253 37.1609 97.5518 37.1609H96.7201ZM96.7201 33.9044V36.492H97.4946C98.0051 36.492 98.3939 36.3762 98.6608 36.1444C98.9307 35.9097 99.0657 35.5796 99.0657 35.1542C99.0657 34.321 98.5728 33.9044 97.5871 33.9044H96.7201Z" fill="white"/>
<path d="M103.576 39.6518C102.682 39.6518 101.964 39.3569 101.424 38.7672C100.888 38.1775 100.619 37.4103 100.619 36.4656C100.619 35.4505 100.893 34.6408 101.442 34.0364C101.991 33.4321 102.737 33.1299 103.682 33.1299C104.553 33.1299 105.255 33.4233 105.786 34.01C106.32 34.5968 106.587 35.364 106.587 36.3116C106.587 37.3414 106.314 38.1555 105.768 38.754C105.222 39.3525 104.492 39.6518 103.576 39.6518ZM103.629 33.7988C102.966 33.7988 102.428 34.0379 102.014 34.5161C101.601 34.9943 101.394 35.6222 101.394 36.3996C101.394 37.1771 101.595 37.8035 101.997 38.2787C102.401 38.7511 102.928 38.9872 103.576 38.9872C104.269 38.9872 104.815 38.7613 105.214 38.3095C105.613 37.8577 105.812 37.2255 105.812 36.4128C105.812 35.5796 105.618 34.9356 105.231 34.4809C104.844 34.0262 104.31 33.7988 103.629 33.7988Z" fill="white"/>
<path d="M112.915 39.5461H112.175V34.987C112.175 34.5763 112.19 34.2873 112.219 34.12H112.193C112.137 34.2638 112.07 34.3958 111.991 34.5161L108.743 39.5461H107.828V33.2355H108.567V37.6802C108.567 38.1555 108.555 38.465 108.532 38.6088H108.549C108.614 38.4797 108.696 38.3389 108.796 38.1863L111.964 33.2355H112.915V39.5461Z" fill="white"/>
<path d="M119.322 39.5461H118.583V36.6681H115.318V39.5461H114.578V33.2355H115.318V36.0036H118.583V33.2355H119.322V39.5461Z" fill="white"/>
<path d="M125.272 39.2821C124.806 39.5285 124.225 39.6518 123.529 39.6518C122.632 39.6518 121.913 39.3628 121.373 38.7848C120.833 38.2069 120.563 37.4485 120.563 36.5096C120.563 35.5004 120.867 34.6848 121.474 34.0628C122.081 33.4409 122.852 33.1299 123.785 33.1299C124.383 33.1299 124.879 33.2164 125.272 33.3895V34.1773C124.82 33.9249 124.321 33.7988 123.776 33.7988C123.051 33.7988 122.463 34.0408 122.011 34.5249C121.562 35.009 121.338 35.6559 121.338 36.4656C121.338 37.2343 121.548 37.8475 121.967 38.3051C122.39 38.7599 122.943 38.9872 123.626 38.9872C124.26 38.9872 124.808 38.8464 125.272 38.5648V39.2821Z" fill="white"/>
<path d="M130.289 33.9044H128.467V39.5461H127.728V33.9044H125.91V33.2355H130.289V33.9044Z" fill="white"/>
<path d="M132.023 37.1609V39.5461H131.283V33.2355H133.017C133.692 33.2355 134.214 33.3998 134.584 33.7284C134.957 34.057 135.143 34.5205 135.143 35.119C135.143 35.7175 134.936 36.2075 134.522 36.5889C134.112 36.9702 133.556 37.1609 132.854 37.1609H132.023ZM132.023 33.9044V36.492H132.797C133.308 36.492 133.696 36.3762 133.963 36.1444C134.233 35.9097 134.368 35.5796 134.368 35.1542C134.368 34.321 133.875 33.9044 132.89 33.9044H132.023Z" fill="white"/>
<path d="M140.675 33.2355L138.725 37.6406C138.379 38.421 138.044 38.952 137.722 39.2337C137.399 39.5153 137.047 39.6562 136.665 39.6562C136.352 39.6562 136.089 39.6107 135.878 39.5197V38.7716C136.13 38.9212 136.374 38.996 136.608 38.996C136.846 38.996 137.064 38.9051 137.264 38.7232C137.463 38.5384 137.679 38.2142 137.911 37.7506L135.772 33.2355H136.613L138.127 36.6065C138.153 36.6622 138.207 36.7986 138.289 37.0157H138.298C138.307 36.9893 138.367 36.847 138.479 36.5889L139.882 33.2355H140.675Z" fill="white"/>
<path d="M147.883 39.5461H147.148V35.3126C147.148 34.9782 147.169 34.5689 147.21 34.0848H147.192C147.122 34.3694 147.059 34.5733 147.003 34.6965L144.846 39.5461H144.486L142.334 34.7317C142.272 34.5909 142.209 34.3753 142.144 34.0848H142.127C142.15 34.3371 142.162 34.7493 142.162 35.3214V39.5461H141.449V33.2355H142.426L144.362 37.6362C144.512 37.9736 144.609 38.2259 144.653 38.3932H144.679C144.805 38.047 144.907 37.7888 144.983 37.6186L146.959 33.2355H147.883V39.5461Z" fill="white"/>
<path d="M152.891 39.5461H149.546V33.2355H152.75V33.9044H150.286V36.0036H152.565V36.6681H150.286V38.8772H152.891V39.5461Z" fill="white"/>
<path d="M158.85 39.5461H158.11V36.6681H154.845V39.5461H154.106V33.2355H154.845V36.0036H158.11V33.2355H158.85V39.5461Z" fill="white"/>
<path d="M164.236 33.9044H162.414V39.5461H161.675V33.9044H159.857V33.2355H164.236V33.9044Z" fill="white"/>
<path d="M170.115 39.5461H169.297L168.628 37.777H165.952L165.323 39.5461H164.5L166.92 33.2355H167.686L170.115 39.5461ZM168.386 37.1125L167.396 34.4237C167.363 34.3357 167.331 34.1949 167.299 34.0012H167.281C167.252 34.1802 167.218 34.321 167.18 34.4237L166.199 37.1125H168.386Z" fill="white"/>
<path d="M58.669 30.0354H53.3478V15.723C53.3478 14.1772 53.4145 12.4702 53.5479 10.6019H53.4145C53.1365 12.0699 52.8862 13.1263 52.6638 13.7713L47.059 30.0354H42.6552L36.9502 13.9381C36.7945 13.5044 36.5443 12.3924 36.1996 10.6019H36.0495C36.194 12.9595 36.2663 15.028 36.2663 16.8073V30.0354H31.4121V6.1147H39.3023L44.1898 20.2936C44.5791 21.428 44.8626 22.5678 45.0406 23.7133H45.1407C45.4409 22.3899 45.7579 21.2389 46.0915 20.2603L50.979 6.1147H58.669V30.0354Z" fill="#E10600"/>
<path d="M85.1419 30.0354H79.2702L77.5687 24.7141H69.0614L67.3766 30.0354H61.5382L70.2457 6.1147H76.6346L85.1419 30.0354ZM76.3343 20.5772L73.7654 12.5369C73.5764 11.9364 73.4429 11.2191 73.3651 10.3851H73.2316C73.176 11.0857 73.037 11.7807 72.8146 12.4702L70.2124 20.5772H76.3343Z" fill="#E10600"/>
<path d="M104.942 29.1847C103.196 30.0298 100.917 30.4524 98.1032 30.4524C94.4333 30.4524 91.5475 29.3737 89.4457 27.2163C87.3438 25.0589 86.2929 22.1842 86.2929 18.5922C86.2929 14.7666 87.4717 11.6639 89.8293 9.28411C92.198 6.90427 95.2674 5.71436 99.0373 5.71436C101.373 5.71436 103.341 6.00905 104.942 6.59845V11.7863C103.341 10.8299 101.517 10.3517 99.471 10.3517C97.2246 10.3517 95.4119 11.0579 94.033 12.4702C92.654 13.8825 91.9645 15.7953 91.9645 18.2085C91.9645 20.5216 92.6151 22.3677 93.9162 23.7466C95.2173 25.1145 96.9688 25.7984 99.1707 25.7984C101.273 25.7984 103.196 25.2868 104.942 24.2637V29.1847Z" fill="#E10600"/>
<path d="M125.911 10.5018H119.088V30.0354H113.683V10.5018H106.894V6.1147H125.911V10.5018Z" fill="#E10600"/>
<path d="M148.13 30.0354H142.258L140.557 24.7141H132.049L130.364 30.0354H124.526L133.234 6.1147H139.622L148.13 30.0354ZM139.322 20.5772L136.753 12.5369C136.564 11.9364 136.431 11.2191 136.353 10.3851H136.219C136.164 11.0857 136.025 11.7807 135.802 12.4702L133.2 20.5772H139.322Z" fill="#E10600"/>
<path d="M171 30.0354H164.194L157.221 19.6431C157.088 19.4429 156.876 19.0036 156.587 18.3253H156.504V30.0354H151.116V6.1147H156.504V17.4245H156.587C156.721 17.1131 156.943 16.6683 157.254 16.09L163.86 6.1147H170.282L161.942 17.5246L171 30.0354Z" fill="#E10600"/>
</svg>
