<svg width="58" height="58" viewBox="0 0 58 58" fill="none" xmlns="http://www.w3.org/2000/svg">
<path d="M47.125 57.5H10.875C5.14452 57.5 0.5 52.8555 0.5 47.125V10.875C0.5 5.14452 5.14452 0.5 10.875 0.5H47.125C52.8555 0.5 57.5 5.14452 57.5 10.875V47.125C57.5 52.8555 52.8555 57.5 47.125 57.5Z" stroke="#FF0A0A"/>
<path d="M36.2558 34.4394L36.2537 34.4374L30.7126 28.8962V21.75C30.7126 20.8046 29.9463 20.0411 29.0036 20.0411C28.0605 20.0411 27.2947 20.8069 27.2947 21.75V29.6054C27.2947 30.0587 27.4742 30.4922 27.7946 30.8126L33.8356 36.8537C34.1688 37.1868 34.6057 37.3536 35.0429 37.3536C35.4778 37.3536 35.9167 37.1871 36.2501 36.8537C36.9168 36.187 36.9158 35.1071 36.2558 34.4394ZM15 29C15 21.2812 21.2812 15 29 15C36.7188 15 43 21.2812 43 29C43 36.7188 36.7188 43 29 43C21.2812 43 15 36.7188 15 29Z" fill="#FF0A0A" stroke="#FF0A0A"/>
</svg>
