<svg width="45" height="30" viewBox="0 0 45 30" fill="none" xmlns="http://www.w3.org/2000/svg">
<path d="M18.4922 25.875L19.3029 26.4605L19.3044 26.4584L18.4922 25.875ZM3.00391 25.7188L2.1861 26.2942L2.18754 26.2963L3.00391 25.7188ZM2.94531 3.58984L2.13158 3.00861L2.94531 3.58984ZM18.4141 3.74609L17.5948 4.31957L17.5983 4.32447L18.4141 3.74609ZM8.6875 21.4219L9.63618 21.1056L8.6875 21.4219ZM12.75 21.3633L11.7983 21.056L11.7955 21.065L12.75 21.3633ZM12.75 8.12109L11.7966 8.42269L11.7975 8.42551L12.75 8.12109ZM8.6875 8.04297L9.63719 8.35616L8.6875 8.04297ZM20.0312 14.7617C20.0312 19.7423 19.1893 23.1902 17.68 25.2916L19.3044 26.4584C21.1805 23.8462 22.0312 19.8853 22.0312 14.7617H20.0312ZM17.6815 25.2895C16.2168 27.3175 13.9623 28.3906 10.7188 28.3906V30.3906C14.4543 30.3906 17.3821 29.12 19.3029 26.4605L17.6815 25.2895ZM10.7188 28.3906C7.58022 28.3906 5.33664 27.2847 3.82027 25.1412L2.18754 26.2963C4.13471 29.0487 7.03436 30.3906 10.7188 30.3906V28.3906ZM3.82171 25.1433C2.26094 22.9253 1.40625 19.5146 1.40625 14.7617H-0.59375C-0.59375 19.6963 0.283327 23.5903 2.1861 26.2942L3.82171 25.1433ZM1.40625 14.7617C1.40625 9.75446 2.24838 6.28601 3.75905 4.17108L2.13158 3.00861C0.256828 5.63326 -0.59375 9.61273 -0.59375 14.7617H1.40625ZM3.75905 4.17108C5.22546 2.11811 7.47947 1.03516 10.7188 1.03516V-0.964844C6.97887 -0.964844 4.05058 0.321998 2.13158 3.00861L3.75905 4.17108ZM10.7188 1.03516C13.8384 1.03516 16.0759 2.14961 17.5948 4.31956L19.2333 3.17263C17.2887 0.394658 14.396 -0.964844 10.7188 -0.964844V1.03516ZM17.5983 4.32447C19.1697 6.54081 20.0312 9.96875 20.0312 14.7617H22.0312C22.0312 9.78907 21.148 5.87325 19.2298 3.16772L17.5983 4.32447ZM7.08203 14.7617C7.08203 17.9831 7.2777 20.3548 7.73882 21.7381L9.63618 21.1056C9.29001 20.0671 9.08203 17.9987 9.08203 14.7617H7.08203ZM7.73882 21.7381C7.97455 22.4453 8.321 23.0731 8.83146 23.5296C9.36245 24.0044 10.0101 24.2383 10.7188 24.2383V22.2383C10.4769 22.2383 10.3107 22.1694 10.1646 22.0387C9.99801 21.8898 9.8041 21.6094 9.63618 21.1056L7.73882 21.7381ZM10.7188 24.2383C11.4393 24.2383 12.0952 23.9957 12.6275 23.5043C13.1378 23.0333 13.4777 22.3872 13.7045 21.6616L11.7955 21.065C11.6317 21.5894 11.4377 21.8808 11.2709 22.0347C11.1262 22.1683 10.9618 22.2383 10.7188 22.2383V24.2383ZM13.7016 21.6706C14.1586 20.2553 14.3555 17.9119 14.3555 14.7617H12.3555C12.3555 17.9137 12.1487 19.9713 11.7984 21.056L13.7016 21.6706ZM14.3555 14.7617C14.3555 11.5979 14.1585 9.24324 13.7025 7.81668L11.7975 8.42551C12.1488 9.52499 12.3555 11.5974 12.3555 14.7617H14.3555ZM13.7034 7.8195C13.4713 7.08579 13.1305 6.43386 12.6253 5.95776C12.0967 5.45974 11.4428 5.20703 10.7188 5.20703V7.20703C10.9452 7.20703 11.1051 7.27333 11.2537 7.41334C11.4255 7.57525 11.625 7.88036 11.7966 8.42269L13.7034 7.8195ZM10.7188 5.20703C10.007 5.20703 9.35807 5.44459 8.82751 5.92414C8.31806 6.3846 7.97277 7.01732 7.73781 7.72977L9.63719 8.35616C9.80587 7.84466 10.0009 7.55941 10.1686 7.40789C10.3151 7.27546 10.48 7.20703 10.7188 7.20703V5.20703ZM7.73781 7.72977C7.27785 9.12451 7.08203 11.514 7.08203 14.7617H9.08203C9.08203 11.499 9.28986 9.40935 9.63719 8.35616L7.73781 7.72977ZM44.3516 29V30H45.3516V29H44.3516ZM23.6289 29H22.6289V30H23.6289V29ZM23.6289 23.9219L22.9179 23.2187L22.6289 23.5109V23.9219H23.6289ZM30.6016 16.8711L31.3126 17.5743L31.3185 17.5683L31.3243 17.5622L30.6016 16.8711ZM34.5078 12.6133L35.2848 13.2429L35.29 13.2364L34.5078 12.6133ZM35.7773 10.6406L34.8662 10.2285L34.8621 10.2375L34.8582 10.2467L35.7773 10.6406ZM30.6602 7.30078L31.1469 8.17436L31.151 8.17203L30.6602 7.30078ZM27.5547 9.56641L26.7944 10.216L27.448 10.981L28.209 10.3227L27.5547 9.56641ZM23.3164 4.60547L22.65 3.85988L21.9209 4.51154L22.5561 5.25503L23.3164 4.60547ZM27.0273 1.79297L27.5149 2.6661L27.5235 2.66121L27.0273 1.79297ZM30.2891 0.484375L30.044 -0.485141L30.0415 -0.484488L30.2891 0.484375ZM39.2148 1.01172L38.8041 1.92349L38.8072 1.92486L39.2148 1.01172ZM42.5938 3.80469L41.7575 4.35319L41.7645 4.36354L42.5938 3.80469ZM43.375 10.9531L42.4175 10.6646L42.414 10.6767L43.375 10.9531ZM42.0859 13.7656L42.9271 14.3064L42.9306 14.301L42.0859 13.7656ZM39.7422 16.6562L39.0213 15.9631L39.0167 15.968L39.7422 16.6562ZM33.5508 22.4375L32.883 21.6931L32.5508 21.9912V22.4375H33.5508ZM33.5508 22.6328H32.5508V23.6328H33.5508V22.6328ZM44.3516 22.6328H45.3516V21.6328H44.3516V22.6328ZM44.3516 28H23.6289V30H44.3516V28ZM24.6289 29V23.9219H22.6289V29H24.6289ZM24.3399 24.625L31.3126 17.5743L29.8905 16.1679L22.9179 23.2187L24.3399 24.625ZM31.3243 17.5622C33.312 15.4836 34.6427 14.0352 35.2847 13.2429L33.7309 11.9837C33.149 12.7018 31.8755 14.0919 29.8788 16.18L31.3243 17.5622ZM35.29 13.2364C35.9265 12.4373 36.4115 11.6994 36.6965 11.0345L34.8582 10.2467C34.6744 10.6756 34.313 11.2528 33.7257 11.9902L35.29 13.2364ZM36.6884 11.0528C36.9943 10.3767 37.1484 9.66329 37.1484 8.92188H35.1484C35.1484 9.37838 35.0552 9.81081 34.8662 10.2285L36.6884 11.0528ZM37.1484 8.92188C37.1484 7.94178 36.8187 7.06646 36.0914 6.41777L34.7602 7.91036C34.9964 8.12104 35.1484 8.41759 35.1484 8.92188H37.1484ZM36.0914 6.41777C35.3704 5.7747 34.4252 5.51953 33.3945 5.51953V7.51953C34.1086 7.51953 34.5176 7.69405 34.7602 7.91036L36.0914 6.41777ZM33.3945 5.51953C32.2954 5.51953 31.2164 5.83963 30.1693 6.42953L31.151 8.17203C31.9529 7.72026 32.6968 7.51953 33.3945 7.51953V5.51953ZM30.1735 6.42721C29.1816 6.97982 28.0893 7.78156 26.9004 8.81016L28.209 10.3227C29.3378 9.34604 30.3158 8.63736 31.1469 8.17435L30.1735 6.42721ZM28.315 8.91685L24.0767 3.95591L22.5561 5.25503L26.7944 10.216L28.315 8.91685ZM23.9828 5.35106C25.4325 4.05535 26.6061 3.17358 27.5149 2.66605L26.5398 0.919884C25.4434 1.53215 24.1431 2.52538 22.65 3.85988L23.9828 5.35106ZM27.5235 2.66121C28.4445 2.13491 29.4476 1.73154 30.5367 1.45324L30.0415 -0.484488C28.7867 -0.163835 27.6154 0.305195 26.5312 0.924726L27.5235 2.66121ZM30.5341 1.45389C31.6246 1.17827 32.8685 1.03516 34.2734 1.03516V-0.964844C32.7356 -0.964844 31.3233 -0.808478 30.044 -0.485138L30.5341 1.45389ZM34.2734 1.03516C36.0042 1.03516 37.5077 1.33949 38.8041 1.92349L39.6255 0.0999508C38.0314 -0.618135 36.2406 -0.964844 34.2734 -0.964844V1.03516ZM38.8072 1.92486C40.1094 2.50618 41.0789 3.31852 41.7576 4.35315L43.4299 3.25623C42.52 1.86898 41.237 0.819344 39.6225 0.0985813L38.8072 1.92486ZM41.7645 4.36354C42.4563 5.39004 42.8047 6.54167 42.8047 7.84766H44.8047C44.8047 6.15885 44.3458 4.61517 43.423 3.24583L41.7645 4.36354ZM42.8047 7.84766C42.8047 8.88201 42.6724 9.81874 42.4175 10.6646L44.3325 11.2417C44.6505 10.1865 44.8047 9.05289 44.8047 7.84766H42.8047ZM42.414 10.6767C42.1695 11.5266 41.7817 12.3777 41.2413 13.2303L42.9306 14.301C43.5621 13.3046 44.0337 12.2806 44.336 11.2296L42.414 10.6767ZM41.2448 13.2249C40.7025 14.0683 39.9655 14.9812 39.0214 15.9631L40.463 17.3494C41.472 16.3001 42.2975 15.2858 42.9271 14.3064L41.2448 13.2249ZM39.0167 15.968C38.0856 16.9494 36.0524 18.8499 32.883 21.6931L34.2186 23.1819C37.3773 20.3481 39.4717 18.3943 40.4677 17.3445L39.0167 15.968ZM32.5508 22.4375V22.6328H34.5508V22.4375H32.5508ZM33.5508 23.6328H44.3516V21.6328H33.5508V23.6328ZM43.3516 22.6328V29H45.3516V22.6328H43.3516Z" fill="#FF0A0A"/>
</svg>
