<svg width="58" height="58" viewBox="0 0 58 58" fill="none" xmlns="http://www.w3.org/2000/svg">
<path d="M47.125 57.5H10.875C5.14452 57.5 0.5 52.8555 0.5 47.125V10.875C0.5 5.14452 5.14452 0.5 10.875 0.5H47.125C52.8555 0.5 57.5 5.14452 57.5 10.875V47.125C57.5 52.8555 52.8555 57.5 47.125 57.5Z" stroke="#FF0A0A"/>
<path fill-rule="evenodd" clip-rule="evenodd" d="M28.6828 43.458C28.7861 43.4852 28.893 43.4997 29 43.4997C29.1069 43.4997 29.2138 43.4852 29.3171 43.458C29.435 43.4254 41.0839 40.1302 41.0839 28.9091V19.8447C41.0839 19.3427 40.774 18.8932 40.3045 18.7156L29.4295 14.5776C29.154 14.4725 28.8459 14.4725 28.5704 14.5776L17.6954 18.7156C17.226 18.8932 16.916 19.3427 16.916 19.8447V28.9091C16.916 40.1302 28.565 43.4254 28.6828 43.458ZM35.606 22.4496L37.346 26.2051C37.5472 26.6383 37.4729 27.1476 37.1612 27.5065L29.9112 35.8349C29.681 36.0995 29.3493 36.25 28.9995 36.25C28.6497 36.25 28.318 36.0995 28.0878 35.8349L20.8378 27.5065C20.5242 27.1476 20.4517 26.6383 20.6529 26.2051L22.3929 22.4496C22.5905 22.0237 23.0182 21.75 23.4895 21.75H34.5095C34.9807 21.75 35.4085 22.0237 35.606 22.4496ZM33.7392 24.166H24.2616L23.1759 26.5096L23.2393 26.5821H34.7614L34.8248 26.5096L33.7392 24.166ZM25.3418 29L28.9995 33.2013L32.6553 29H25.3418Z" fill="#FF0A0A"/>
</svg>
