<svg width="45" height="30" viewBox="0 0 45 30" fill="none" xmlns="http://www.w3.org/2000/svg">
<path d="M18.4922 25.875L19.3029 26.4605L19.3044 26.4584L18.4922 25.875ZM3.00391 25.7188L2.1861 26.2942L2.18754 26.2963L3.00391 25.7188ZM2.94531 3.58984L2.13158 3.00861L2.94531 3.58984ZM18.4141 3.74609L17.5948 4.31957L17.5983 4.32447L18.4141 3.74609ZM8.6875 21.4219L9.63618 21.1056L8.6875 21.4219ZM12.75 21.3633L11.7983 21.056L11.7955 21.065L12.75 21.3633ZM12.75 8.12109L11.7966 8.42269L11.7975 8.42551L12.75 8.12109ZM8.6875 8.04297L9.63719 8.35616L8.6875 8.04297ZM20.0312 14.7617C20.0312 19.7423 19.1893 23.1902 17.68 25.2916L19.3044 26.4584C21.1805 23.8462 22.0312 19.8853 22.0312 14.7617H20.0312ZM17.6815 25.2895C16.2168 27.3175 13.9623 28.3906 10.7188 28.3906V30.3906C14.4543 30.3906 17.3821 29.12 19.3029 26.4605L17.6815 25.2895ZM10.7188 28.3906C7.58022 28.3906 5.33664 27.2847 3.82027 25.1412L2.18754 26.2963C4.13471 29.0487 7.03436 30.3906 10.7188 30.3906V28.3906ZM3.82171 25.1433C2.26094 22.9253 1.40625 19.5146 1.40625 14.7617H-0.59375C-0.59375 19.6963 0.283327 23.5903 2.1861 26.2942L3.82171 25.1433ZM1.40625 14.7617C1.40625 9.75446 2.24838 6.28601 3.75905 4.17108L2.13158 3.00861C0.256828 5.63326 -0.59375 9.61273 -0.59375 14.7617H1.40625ZM3.75905 4.17108C5.22546 2.11811 7.47947 1.03516 10.7188 1.03516V-0.964844C6.97887 -0.964844 4.05058 0.321998 2.13158 3.00861L3.75905 4.17108ZM10.7188 1.03516C13.8384 1.03516 16.0759 2.14961 17.5948 4.31956L19.2333 3.17263C17.2887 0.394658 14.396 -0.964844 10.7188 -0.964844V1.03516ZM17.5983 4.32447C19.1697 6.54081 20.0312 9.96875 20.0312 14.7617H22.0312C22.0312 9.78907 21.148 5.87325 19.2298 3.16772L17.5983 4.32447ZM7.08203 14.7617C7.08203 17.9831 7.2777 20.3548 7.73882 21.7381L9.63618 21.1056C9.29001 20.0671 9.08203 17.9987 9.08203 14.7617H7.08203ZM7.73882 21.7381C7.97455 22.4453 8.321 23.0731 8.83146 23.5296C9.36245 24.0044 10.0101 24.2383 10.7188 24.2383V22.2383C10.4769 22.2383 10.3107 22.1694 10.1646 22.0387C9.99801 21.8898 9.8041 21.6094 9.63618 21.1056L7.73882 21.7381ZM10.7188 24.2383C11.4393 24.2383 12.0952 23.9957 12.6275 23.5043C13.1378 23.0333 13.4777 22.3872 13.7045 21.6616L11.7955 21.065C11.6317 21.5894 11.4377 21.8808 11.2709 22.0347C11.1262 22.1683 10.9618 22.2383 10.7188 22.2383V24.2383ZM13.7016 21.6706C14.1586 20.2553 14.3555 17.9119 14.3555 14.7617H12.3555C12.3555 17.9137 12.1487 19.9713 11.7984 21.056L13.7016 21.6706ZM14.3555 14.7617C14.3555 11.5979 14.1585 9.24324 13.7025 7.81668L11.7975 8.42551C12.1488 9.52499 12.3555 11.5974 12.3555 14.7617H14.3555ZM13.7034 7.8195C13.4713 7.08579 13.1305 6.43386 12.6253 5.95776C12.0967 5.45974 11.4428 5.20703 10.7188 5.20703V7.20703C10.9452 7.20703 11.1051 7.27333 11.2537 7.41334C11.4255 7.57525 11.625 7.88036 11.7966 8.42269L13.7034 7.8195ZM10.7188 5.20703C10.007 5.20703 9.35807 5.44459 8.82751 5.92414C8.31806 6.3846 7.97277 7.01732 7.73781 7.72977L9.63719 8.35616C9.80587 7.84466 10.0009 7.55941 10.1686 7.40789C10.3151 7.27546 10.48 7.20703 10.7188 7.20703V5.20703ZM7.73781 7.72977C7.27785 9.12451 7.08203 11.514 7.08203 14.7617H9.08203C9.08203 11.499 9.28986 9.40935 9.63719 8.35616L7.73781 7.72977ZM41.7734 11.207L42.5333 11.8572L42.5365 11.8533L41.7734 11.207ZM37.0859 13.9609L36.8161 12.998L36.0859 13.2027V13.9609H37.0859ZM37.0859 14.0781H36.0859V14.9603L36.9612 15.0703L37.0859 14.0781ZM41.0703 27.1055L40.4848 26.2948L40.4824 26.2965L41.0703 27.1055ZM28.043 29.0586L27.8754 30.0445L27.877 30.0447L28.043 29.0586ZM23.8047 27.8477H22.8047V28.5345L23.4457 28.781L23.8047 27.8477ZM23.8047 21.4414L24.2593 20.5507L22.8047 19.8083V21.4414H23.8047ZM27.6133 22.8672L27.3777 23.8391L27.3891 23.8417L27.6133 22.8672ZM34.8984 22.6133L35.4193 23.4669L35.4233 23.4645L34.8984 22.6133ZM35.4648 18.5703L34.736 19.255L34.7413 19.2606L34.7466 19.2661L35.4648 18.5703ZM33.5117 17.6133L33.2725 18.5843L33.2858 18.5874L33.5117 17.6133ZM28.2383 17.2812H27.2383V18.2812H28.2383V17.2812ZM28.2383 11.4805V10.4805H27.2383V11.4805H28.2383ZM35.0352 6.79297L34.4983 7.63667L34.5069 7.64202L35.0352 6.79297ZM27.0469 8.08203L26.1974 8.60971L26.7272 9.4625L27.5779 8.92939L27.0469 8.08203ZM23.8438 2.92578L23.276 2.10257L22.4913 2.64375L22.9943 3.45346L23.8438 2.92578ZM28.4727 0.699219L28.2042 -0.264074L28.2021 -0.263497L28.4727 0.699219ZM42.3945 6.63672C42.3945 8.186 41.9286 9.47652 41.0103 10.5607L42.5365 11.8533C43.7797 10.3855 44.3945 8.6291 44.3945 6.63672H42.3945ZM41.0136 10.5569C40.0931 11.6327 38.7223 12.4638 36.8161 12.998L37.3558 14.9238C39.5382 14.3122 41.2923 13.3074 42.5332 11.8572L41.0136 10.5569ZM36.0859 13.9609V14.0781H38.0859V13.9609H36.0859ZM36.9612 15.0703C39.2269 15.3551 40.7802 16.0169 41.7603 16.9435C42.714 17.8451 43.2344 19.1008 43.2344 20.8359H45.2344C45.2344 18.6648 44.5634 16.8411 43.1342 15.4901C41.7315 14.1641 39.7106 13.4001 37.2106 13.0859L36.9612 15.0703ZM43.2344 20.8359C43.2344 23.179 42.3275 24.964 40.4848 26.2948L41.6558 27.9161C44.0319 26.2001 45.2344 23.8053 45.2344 20.8359H43.2344ZM40.4824 26.2965C38.6175 27.6518 35.9359 28.3906 32.3203 28.3906V30.3906C36.1787 30.3906 39.3304 29.6061 41.6582 27.9144L40.4824 26.2965ZM32.3203 28.3906C30.8313 28.3906 29.4617 28.2833 28.209 28.0725L27.877 30.0447C29.2545 30.2766 30.7364 30.3906 32.3203 30.3906V28.3906ZM28.2106 28.0727C26.987 27.8647 25.6391 27.4818 24.1637 26.9143L23.4457 28.781C25.0172 29.3854 26.4948 29.8097 27.8754 30.0444L28.2106 28.0727ZM24.8047 27.8477V21.4414H22.8047V27.8477H24.8047ZM23.3501 22.3321C24.6656 23.0036 26.0084 23.5071 27.3777 23.839L27.8489 21.8953C26.64 21.6023 25.4437 21.1553 24.2593 20.5507L23.3501 22.3321ZM27.3891 23.8417C28.7492 24.1546 30.0234 24.3164 31.207 24.3164V22.3164C30.2032 22.3164 29.0815 22.1788 27.8374 21.8926L27.3891 23.8417ZM31.207 24.3164C32.9469 24.3164 34.4084 24.0837 35.4193 23.4669L34.3776 21.7596C33.852 22.0803 32.8526 22.3164 31.207 22.3164V24.3164ZM35.4233 23.4645C36.5356 22.7785 37.0703 21.6856 37.0703 20.3672H35.0703C35.0703 21.0801 34.8238 21.4845 34.3736 21.7621L35.4233 23.4645ZM37.0703 20.3672C37.0703 19.4185 36.8228 18.5349 36.1831 17.8745L34.7466 19.2661C34.9142 19.4391 35.0703 19.7534 35.0703 20.3672H37.0703ZM36.1937 17.8856C35.5982 17.2517 34.7283 16.8689 33.7376 16.6391L33.2858 18.5874C34.092 18.7744 34.5242 19.0296 34.736 19.255L36.1937 17.8856ZM33.7509 16.6423C32.7433 16.3941 31.4824 16.2812 29.9961 16.2812V18.2812C31.4005 18.2812 32.4832 18.3898 33.2725 18.5842L33.7509 16.6423ZM29.9961 16.2812H28.2383V18.2812H29.9961V16.2812ZM29.2383 17.2812V11.4805H27.2383V17.2812H29.2383ZM28.2383 12.4805H30.0352V10.4805H28.2383V12.4805ZM30.0352 12.4805C32.0476 12.4805 33.7082 12.2284 34.8998 11.6188C35.5101 11.3065 36.025 10.8863 36.3845 10.3345C36.7474 9.77746 36.9141 9.1443 36.9141 8.47266H34.9141C34.9141 8.80362 34.8358 9.04774 34.7088 9.24269C34.5784 9.44279 34.3584 9.64921 33.9889 9.83827C33.2209 10.2312 31.9419 10.4805 30.0352 10.4805V12.4805ZM36.9141 8.47266C36.9141 7.41096 36.4744 6.51073 35.5635 5.94391L34.5069 7.64202C34.7678 7.80437 34.9141 8.02393 34.9141 8.47266H36.9141ZM35.572 5.94931C34.7829 5.44716 33.7986 5.24609 32.7109 5.24609V7.24609C33.5764 7.24609 34.1415 7.40961 34.4983 7.63663L35.572 5.94931ZM32.7109 5.24609C30.6564 5.24609 28.5864 5.93713 26.5159 7.23467L27.5779 8.92939C29.4136 7.77902 31.1197 7.24609 32.7109 7.24609V5.24609ZM27.8963 7.55435L24.6932 2.3981L22.9943 3.45346L26.1974 8.60971L27.8963 7.55435ZM24.4115 3.74899C25.8421 2.76238 27.2857 2.07146 28.7432 1.66193L28.2021 -0.263497C26.5085 0.212396 24.8663 1.00584 23.276 2.10257L24.4115 3.74899ZM28.7411 1.66251C30.2243 1.24916 31.9476 1.03516 33.9219 1.03516V-0.964844C31.8076 -0.964844 29.8981 -0.736142 28.2042 -0.264072L28.7411 1.66251ZM33.9219 1.03516C36.7597 1.03516 38.8503 1.59971 40.3028 2.6131L41.4472 0.972842C39.5403 -0.357526 36.9955 -0.964844 33.9219 -0.964844V1.03516ZM40.3028 2.6131C41.713 3.59694 42.3945 4.90453 42.3945 6.63672H44.3945C44.3945 4.25432 43.3964 2.33275 41.4472 0.972842L40.3028 2.6131Z" fill="#FF0A0A"/>
</svg>
