<svg width="41" height="30" viewBox="0 0 41 30" fill="none" xmlns="http://www.w3.org/2000/svg">
<path d="M18.4922 25.875L19.3029 26.4605L19.3044 26.4584L18.4922 25.875ZM3.00391 25.7188L2.1861 26.2942L2.18754 26.2963L3.00391 25.7188ZM2.94531 3.58984L2.13158 3.00861L2.94531 3.58984ZM18.4141 3.74609L17.5948 4.31957L17.5983 4.32447L18.4141 3.74609ZM8.6875 21.4219L9.63618 21.1056L8.6875 21.4219ZM12.75 21.3633L11.7983 21.056L11.7955 21.065L12.75 21.3633ZM12.75 8.12109L11.7966 8.42269L11.7975 8.42551L12.75 8.12109ZM8.6875 8.04297L9.63719 8.35616L8.6875 8.04297ZM20.0312 14.7617C20.0312 19.7423 19.1893 23.1902 17.68 25.2916L19.3044 26.4584C21.1805 23.8462 22.0312 19.8853 22.0312 14.7617H20.0312ZM17.6815 25.2895C16.2168 27.3175 13.9623 28.3906 10.7188 28.3906V30.3906C14.4543 30.3906 17.3821 29.12 19.3029 26.4605L17.6815 25.2895ZM10.7188 28.3906C7.58022 28.3906 5.33664 27.2847 3.82027 25.1412L2.18754 26.2963C4.13471 29.0487 7.03436 30.3906 10.7188 30.3906V28.3906ZM3.82171 25.1433C2.26094 22.9253 1.40625 19.5146 1.40625 14.7617H-0.59375C-0.59375 19.6963 0.283327 23.5903 2.1861 26.2942L3.82171 25.1433ZM1.40625 14.7617C1.40625 9.75446 2.24838 6.28601 3.75905 4.17108L2.13158 3.00861C0.256828 5.63326 -0.59375 9.61273 -0.59375 14.7617H1.40625ZM3.75905 4.17108C5.22546 2.11811 7.47947 1.03516 10.7188 1.03516V-0.964844C6.97887 -0.964844 4.05058 0.321998 2.13158 3.00861L3.75905 4.17108ZM10.7188 1.03516C13.8384 1.03516 16.0759 2.14961 17.5948 4.31956L19.2333 3.17263C17.2887 0.394658 14.396 -0.964844 10.7188 -0.964844V1.03516ZM17.5983 4.32447C19.1697 6.54081 20.0312 9.96875 20.0312 14.7617H22.0312C22.0312 9.78907 21.148 5.87325 19.2298 3.16772L17.5983 4.32447ZM7.08203 14.7617C7.08203 17.9831 7.2777 20.3548 7.73882 21.7381L9.63618 21.1056C9.29001 20.0671 9.08203 17.9987 9.08203 14.7617H7.08203ZM7.73882 21.7381C7.97455 22.4453 8.321 23.0731 8.83146 23.5296C9.36245 24.0044 10.0101 24.2383 10.7188 24.2383V22.2383C10.4769 22.2383 10.3107 22.1694 10.1646 22.0387C9.99801 21.8898 9.8041 21.6094 9.63618 21.1056L7.73882 21.7381ZM10.7188 24.2383C11.4393 24.2383 12.0952 23.9957 12.6275 23.5043C13.1378 23.0333 13.4777 22.3872 13.7045 21.6616L11.7955 21.065C11.6317 21.5894 11.4377 21.8808 11.2709 22.0347C11.1262 22.1683 10.9618 22.2383 10.7188 22.2383V24.2383ZM13.7016 21.6706C14.1586 20.2553 14.3555 17.9119 14.3555 14.7617H12.3555C12.3555 17.9137 12.1487 19.9713 11.7984 21.056L13.7016 21.6706ZM14.3555 14.7617C14.3555 11.5979 14.1585 9.24324 13.7025 7.81668L11.7975 8.42551C12.1488 9.52499 12.3555 11.5974 12.3555 14.7617H14.3555ZM13.7034 7.8195C13.4713 7.08579 13.1305 6.43386 12.6253 5.95776C12.0967 5.45974 11.4428 5.20703 10.7188 5.20703V7.20703C10.9452 7.20703 11.1051 7.27333 11.2537 7.41334C11.4255 7.57525 11.625 7.88036 11.7966 8.42269L13.7034 7.8195ZM10.7188 5.20703C10.007 5.20703 9.35807 5.44459 8.82751 5.92414C8.31806 6.3846 7.97277 7.01732 7.73781 7.72977L9.63719 8.35616C9.80587 7.84466 10.0009 7.55941 10.1686 7.40789C10.3151 7.27546 10.48 7.20703 10.7188 7.20703V5.20703ZM7.73781 7.72977C7.27785 9.12451 7.08203 11.514 7.08203 14.7617H9.08203C9.08203 11.499 9.28986 9.40935 9.63719 8.35616L7.73781 7.72977ZM40.8359 29V30H41.8359V29H40.8359ZM33.0039 29H32.0039V30H33.0039V29ZM33.1211 8.84375L34.1198 8.89496L34.2751 5.86565L32.3487 8.20864L33.1211 8.84375ZM31.3242 10.6797L31.9607 11.4509L31.9753 11.4389L31.9894 11.4263L31.3242 10.6797ZM28.082 13.3555L27.3063 13.9865L27.9418 14.7678L28.7186 14.1267L28.082 13.3555ZM24.0781 8.43359L23.4465 7.65833L22.6718 8.2895L23.3024 9.06465L24.0781 8.43359ZM33.8828 0.445312V-0.554688H33.527L33.2512 -0.32995L33.8828 0.445312ZM40.8359 0.445312H41.8359V-0.554688H40.8359V0.445312ZM40.8359 28H33.0039V30H40.8359V28ZM34.0039 29V13.8828H32.0039V29H34.0039ZM34.0039 13.8828C34.0039 12.0607 34.0427 10.3983 34.1198 8.89496L32.1224 8.79254C32.0433 10.336 32.0039 12.0331 32.0039 13.8828H34.0039ZM32.3487 8.20864C31.9069 8.74587 31.3462 9.32084 30.659 9.93303L31.9894 11.4263C32.7346 10.7625 33.3717 10.1135 33.8935 9.47886L32.3487 8.20864ZM30.6877 9.90843L27.4455 12.5842L28.7186 14.1267L31.9607 11.4509L30.6877 9.90843ZM28.8578 12.7244L24.8539 7.80254L23.3024 9.06465L27.3063 13.9865L28.8578 12.7244ZM24.7098 9.20886L34.5145 1.22058L33.2512 -0.32995L23.4465 7.65833L24.7098 9.20886ZM33.8828 1.44531H40.8359V-0.554688H33.8828V1.44531ZM39.8359 0.445312V29H41.8359V0.445312H39.8359Z" fill="#FF0A0A"/>
</svg>
