<svg width="46" height="30" viewBox="0 0 46 30" fill="none" xmlns="http://www.w3.org/2000/svg">
<path d="M18.4922 25.875L19.3029 26.4605L19.3044 26.4584L18.4922 25.875ZM3.00391 25.7188L2.1861 26.2942L2.18754 26.2963L3.00391 25.7188ZM2.94531 3.58984L2.13158 3.00861L2.94531 3.58984ZM18.4141 3.74609L17.5948 4.31957L17.5983 4.32447L18.4141 3.74609ZM8.6875 21.4219L9.63618 21.1056L8.6875 21.4219ZM12.75 21.3633L11.7983 21.056L11.7955 21.065L12.75 21.3633ZM12.75 8.12109L11.7966 8.42269L11.7975 8.42551L12.75 8.12109ZM8.6875 8.04297L9.63719 8.35616L8.6875 8.04297ZM20.0312 14.7617C20.0312 19.7423 19.1893 23.1902 17.68 25.2916L19.3044 26.4584C21.1805 23.8462 22.0312 19.8853 22.0312 14.7617H20.0312ZM17.6815 25.2895C16.2168 27.3175 13.9623 28.3906 10.7188 28.3906V30.3906C14.4543 30.3906 17.3821 29.12 19.3029 26.4605L17.6815 25.2895ZM10.7188 28.3906C7.58022 28.3906 5.33664 27.2847 3.82027 25.1412L2.18754 26.2963C4.13471 29.0487 7.03436 30.3906 10.7188 30.3906V28.3906ZM3.82171 25.1433C2.26094 22.9253 1.40625 19.5146 1.40625 14.7617H-0.59375C-0.59375 19.6963 0.283327 23.5903 2.1861 26.2942L3.82171 25.1433ZM1.40625 14.7617C1.40625 9.75446 2.24838 6.28601 3.75905 4.17108L2.13158 3.00861C0.256828 5.63326 -0.59375 9.61273 -0.59375 14.7617H1.40625ZM3.75905 4.17108C5.22546 2.11811 7.47947 1.03516 10.7188 1.03516V-0.964844C6.97887 -0.964844 4.05058 0.321998 2.13158 3.00861L3.75905 4.17108ZM10.7188 1.03516C13.8384 1.03516 16.0759 2.14961 17.5948 4.31956L19.2333 3.17263C17.2887 0.394658 14.396 -0.964844 10.7188 -0.964844V1.03516ZM17.5983 4.32447C19.1697 6.54081 20.0312 9.96875 20.0312 14.7617H22.0312C22.0312 9.78907 21.148 5.87325 19.2298 3.16772L17.5983 4.32447ZM7.08203 14.7617C7.08203 17.9831 7.2777 20.3548 7.73882 21.7381L9.63618 21.1056C9.29001 20.0671 9.08203 17.9987 9.08203 14.7617H7.08203ZM7.73882 21.7381C7.97455 22.4453 8.321 23.0731 8.83146 23.5296C9.36245 24.0044 10.0101 24.2383 10.7188 24.2383V22.2383C10.4769 22.2383 10.3107 22.1694 10.1646 22.0387C9.99801 21.8898 9.8041 21.6094 9.63618 21.1056L7.73882 21.7381ZM10.7188 24.2383C11.4393 24.2383 12.0952 23.9957 12.6275 23.5043C13.1378 23.0333 13.4777 22.3872 13.7045 21.6616L11.7955 21.065C11.6317 21.5894 11.4377 21.8808 11.2709 22.0347C11.1262 22.1683 10.9618 22.2383 10.7188 22.2383V24.2383ZM13.7016 21.6706C14.1586 20.2553 14.3555 17.9119 14.3555 14.7617H12.3555C12.3555 17.9137 12.1487 19.9713 11.7984 21.056L13.7016 21.6706ZM14.3555 14.7617C14.3555 11.5979 14.1585 9.24324 13.7025 7.81668L11.7975 8.42551C12.1488 9.52499 12.3555 11.5974 12.3555 14.7617H14.3555ZM13.7034 7.8195C13.4713 7.08579 13.1305 6.43386 12.6253 5.95776C12.0967 5.45974 11.4428 5.20703 10.7188 5.20703V7.20703C10.9452 7.20703 11.1051 7.27333 11.2537 7.41334C11.4255 7.57525 11.625 7.88036 11.7966 8.42269L13.7034 7.8195ZM10.7188 5.20703C10.007 5.20703 9.35807 5.44459 8.82751 5.92414C8.31806 6.3846 7.97277 7.01732 7.73781 7.72977L9.63719 8.35616C9.80587 7.84466 10.0009 7.55941 10.1686 7.40789C10.3151 7.27546 10.48 7.20703 10.7188 7.20703V5.20703ZM7.73781 7.72977C7.27785 9.12451 7.08203 11.514 7.08203 14.7617H9.08203C9.08203 11.499 9.28986 9.40935 9.63719 8.35616L7.73781 7.72977ZM45.2695 23.4727V24.4727H46.2695V23.4727H45.2695ZM42.125 23.4727V22.4727H41.125V23.4727H42.125ZM42.125 29V30H43.125V29H42.125ZM34.5078 29H33.5078V30H34.5078V29ZM34.5078 23.4727H35.5078V22.4727H34.5078V23.4727ZM23.1211 23.4727H22.1211V24.4727H23.1211V23.4727ZM23.1211 17.8086L22.2957 17.2441L22.1211 17.4993V17.8086H23.1211ZM34.9961 0.445312V-0.554688H34.4685L34.1707 -0.119205L34.9961 0.445312ZM42.125 0.445312H43.125V-0.554688H42.125V0.445312ZM42.125 17.7109H41.125V18.7109H42.125V17.7109ZM45.2695 17.7109H46.2695V16.7109H45.2695V17.7109ZM34.5078 17.7109V18.7109H35.5078V17.7109H34.5078ZM34.5664 11.8711L33.5675 11.8224L33.5671 11.8341L34.5664 11.8711ZM34.6836 10.1914L35.578 10.6386L36.3016 9.19141H34.6836V10.1914ZM34.4688 10.1914V9.19141H33.8172L33.554 9.78747L34.4688 10.1914ZM32.9648 13.0039L33.7948 13.5618L33.8007 13.553L33.8064 13.544L32.9648 13.0039ZM29.8008 17.7109L28.9709 17.1531L27.9237 18.7109H29.8008V17.7109ZM45.2695 22.4727H42.125V24.4727H45.2695V22.4727ZM41.125 23.4727V29H43.125V23.4727H41.125ZM42.125 28H34.5078V30H42.125V28ZM35.5078 29V23.4727H33.5078V29H35.5078ZM34.5078 22.4727H23.1211V24.4727H34.5078V22.4727ZM24.1211 23.4727V17.8086H22.1211V23.4727H24.1211ZM23.9465 18.3731L35.8215 1.00983L34.1707 -0.119205L22.2957 17.2441L23.9465 18.3731ZM34.9961 1.44531H42.125V-0.554688H34.9961V1.44531ZM41.125 0.445312V17.7109H43.125V0.445312H41.125ZM42.125 18.7109H45.2695V16.7109H42.125V18.7109ZM44.2695 17.7109V23.4727H46.2695V17.7109H44.2695ZM35.5078 17.7109V14.3906H33.5078V17.7109H35.5078ZM35.5078 14.3906C35.5078 13.7835 35.5269 12.9576 35.5657 11.9081L33.5671 11.8341C33.5278 12.894 33.5078 13.7478 33.5078 14.3906H35.5078ZM35.5652 11.9198C35.5912 11.3879 35.6135 10.9893 35.6323 10.72C35.6418 10.584 35.6498 10.4899 35.656 10.4315C35.6593 10.401 35.6608 10.3918 35.6601 10.3962C35.6598 10.398 35.6571 10.4148 35.6511 10.44C35.6494 10.4469 35.6301 10.5346 35.578 10.6386L33.7892 9.74419C33.7339 9.85476 33.7112 9.95286 33.706 9.97427C33.6966 10.0139 33.6903 10.0491 33.6863 10.0733C33.6783 10.1224 33.6721 10.1739 33.6672 10.2199C33.6572 10.3144 33.6472 10.4368 33.6372 10.5808C33.6169 10.8714 33.5937 11.2866 33.5676 11.8224L35.5652 11.9198ZM34.6836 9.19141H34.4688V11.1914H34.6836V9.19141ZM33.554 9.78747C33.1309 10.7455 32.6537 11.6372 32.1233 12.4638L33.8064 13.544C34.3957 12.6258 34.9212 11.6425 35.3835 10.5953L33.554 9.78747ZM32.1349 12.446L28.9709 17.1531L30.6307 18.2688L33.7948 13.5618L32.1349 12.446ZM29.8008 18.7109H34.5078V16.7109H29.8008V18.7109Z" fill="#FF0A0A"/>
</svg>
