<svg width="16" height="16" fill="none" xmlns="http://www.w3.org/2000/svg"><g clip-path="url(#clip0)"><path d="M11.648 9.588c-.198-.1-1.172-.578-1.353-.645-.182-.066-.314-.098-.447.1-.131.198-.511.644-.627.776-.115.133-.23.149-.429.05-.198-.1-.837-.308-1.593-.983a5.964 5.964 0 01-1.102-1.373c-.116-.198-.012-.305.086-.404.09-.088.2-.231.298-.346.1-.116.132-.199.198-.332.066-.132.034-.247-.016-.346-.05-.1-.446-1.075-.61-1.472-.162-.386-.326-.333-.447-.34a8.538 8.538 0 00-.38-.006.726.726 0 00-.528.248c-.181.198-.693.677-.693 1.652 0 .975.71 1.917.808 2.05.1.132 1.398 2.133 3.385 2.991.473.204.841.326 1.13.417.474.151.906.13 1.247.078.38-.056 1.172-.479 1.337-.942.165-.462.165-.859.115-.942-.049-.082-.18-.132-.38-.231h.001zm-3.615 4.935h-.002a6.58 6.58 0 01-3.354-.918l-.24-.143-2.495.655.665-2.432-.156-.25A6.574 6.574 0 011.444 7.93a6.599 6.599 0 016.592-6.59c1.76 0 3.415.687 4.659 1.932a6.552 6.552 0 011.928 4.663c-.002 3.633-2.958 6.59-6.59 6.59zm5.61-12.198A7.877 7.877 0 008.032 0C3.663 0 .107 3.557.105 7.928c0 1.397.364 2.761 1.058 3.963L.038 16l4.203-1.103a7.923 7.923 0 003.79.966h.002c4.37 0 7.927-3.557 7.93-7.929a7.882 7.882 0 00-2.32-5.609z"/></g><defs><clipPath id="clip0"><path fill="#fff" d="M0 0h16v16H0z"/></clipPath></defs></svg>