<svg width="16" height="16" viewBox="0 0 16 16" fill="none" xmlns="http://www.w3.org/2000/svg">
<path d="M1.26494 8.23244L4.72124 9.52244L6.05904 13.8248C6.14464 14.1003 6.48159 14.2022 6.70524 14.0193L8.63184 12.4487C8.83379 12.2842 9.12144 12.276 9.33249 12.4292L12.8074 14.952C13.0466 15.1259 13.3856 14.9948 13.4456 14.7057L15.9911 2.46119C16.0566 2.14539 15.7463 1.88194 15.4456 1.99824L1.26089 7.47029C0.910844 7.60529 0.913894 8.10089 1.26494 8.23244ZM5.84344 8.83574L12.5983 4.67539C12.7197 4.60084 12.8446 4.76499 12.7404 4.86169L7.16564 10.0437C6.96969 10.2261 6.84329 10.4702 6.80749 10.7351L6.61759 12.1424C6.59244 12.3303 6.32849 12.349 6.27664 12.1671L5.54629 9.60089C5.46264 9.30819 5.58454 8.99554 5.84344 8.83574Z"/>
</svg>
