<svg width="16" height="16" viewBox="0 0 16 16" fill="none" xmlns="http://www.w3.org/2000/svg">
<path fill-rule="evenodd" clip-rule="evenodd" d="M0.882445 2.86831e-08H15.1168C15.6044 -0.000122918 15.9998 0.395019 16 0.882445V15.1168V15.1172C15.9999 15.6049 15.6045 16.0001 15.1168 16H0.883178C0.395629 16.0001 0.000243293 15.605 2.86831e-08 15.1176V0.883178C-0.000122918 0.395629 0.395019 0.000243293 0.882445 2.86831e-08ZM11.0469 9.81235V15.9999H8.54688V9.81235H6.46875V7.39048H8.54688V5.60813C8.54688 3.54123 9.80872 2.41623 11.6525 2.41623C12.5355 2.41623 13.2944 2.48203 13.5156 2.51145V4.67173H12.2443C11.2411 4.67173 11.0469 5.14841 11.0469 5.848V7.39048H13.4453L13.1328 9.81235H11.0469Z" fill="white"/>
</svg>
