<svg width="81" height="15" viewBox="0 0 81 15" fill="none" xmlns="http://www.w3.org/2000/svg">
<path d="M8.34997 13.1764V0H6.80628V4.50536C6.17477 4.29082 5.49063 4.16567 4.61354 4.16567C1.45598 4.16567 0 6.36472 0 8.95709C0 11.3528 0.98235 13.3731 3.75398 13.3731C5.2275 13.3731 6.35019 12.6222 6.87645 11.6746V13.1764H8.34997ZM6.80628 6.00715V9.15375C6.80628 9.74374 6.61332 10.3159 6.35019 10.7449C5.98181 11.3349 5.10471 11.907 4.17499 11.907C2.36816 11.907 1.57878 10.6377 1.57878 8.84982C1.57878 6.88319 2.66638 5.61383 4.75387 5.61383C5.50817 5.61383 6.2274 5.70322 6.80628 6.00715Z" fill="white"/>
<path d="M12.3921 13.1764V9.54708C12.3921 8.97497 12.4097 8.22408 12.5324 7.59833C12.6903 6.84744 13.5674 5.61383 14.7252 5.61383C15.1813 5.61383 15.7075 5.73897 16.1812 6.11442L16.9706 4.68415C16.4794 4.32658 15.883 4.1478 15.1462 4.1478C13.7604 4.1478 12.743 5.04172 12.357 6.07867V4.29082H10.8309V13.1764H12.3921Z" fill="white"/>
<path d="M24.4981 4.82718V5.4708C23.6561 4.57688 22.6386 4.1478 21.4458 4.1478C20.2529 4.1478 19.2355 4.59476 18.3759 5.48868C17.5339 6.3826 17.1129 7.47318 17.1129 8.74255C17.1129 10.0119 17.5339 11.1025 18.3759 12.0143C19.2355 12.9082 20.2529 13.3552 21.4458 13.3552C22.6386 13.3552 23.6561 12.9082 24.4981 12.0143V13.0155H26.0944V4.48749L24.4981 4.82718ZM21.551 11.907C20.7616 11.907 20.0775 11.6031 19.5162 10.9952C18.9548 10.3695 18.6741 9.61859 18.6741 8.74255C18.6741 7.86651 18.9548 7.13349 19.5162 6.50775C20.0775 5.882 20.7616 5.57807 21.551 5.57807C22.3404 5.57807 23.0246 5.882 23.5859 6.50775C24.1472 7.13349 24.4279 7.86651 24.4279 8.74255C24.4279 9.61859 24.1472 10.3695 23.5859 10.9952C23.0246 11.6031 22.3404 11.907 21.551 11.907Z" fill="white"/>
<path d="M33.3519 11.8534C32.6853 11.907 32.1415 11.9964 31.7205 12.1395C31.2995 12.2646 31.0013 12.4076 30.8083 12.5328L30.5101 12.7294L31.3696 11.2455H31.4924C31.6152 11.2455 31.7205 11.2634 31.8082 11.2634C32.9133 11.2634 33.8255 10.9058 34.5623 10.2265C35.299 9.5292 35.6674 8.68891 35.6674 7.7056C35.6674 6.91895 35.3341 6.23957 34.6675 5.66746C34.9307 5.68534 35.5972 5.70322 36.6673 5.70322V4.29082H31.8257C30.5627 4.29082 29.5453 4.61263 28.8085 5.27414C28.0542 5.93564 27.6858 6.77592 27.6858 7.75924C27.6858 8.72467 28.0191 9.56496 28.6857 10.298L28.8085 10.4231C28.8962 10.4768 29.019 10.5483 29.1769 10.6377C29.2821 10.6734 29.3874 10.7271 29.5277 10.7807L28.0893 13.82L29.2295 14.9464L29.6505 14.6961C29.9487 14.5352 30.2996 14.3564 30.7381 14.1597C31.1767 13.9809 31.5451 13.8558 31.8608 13.82C32.1766 13.7664 32.3871 13.7485 32.5274 13.7485C32.8432 13.7485 33.1414 13.8021 33.422 13.9273C33.8255 14.0882 34.1413 14.4458 34.3518 15H36.755L36.7375 14.6782C36.7199 14.4636 36.6673 14.2133 36.5796 13.9094C36.4743 13.5876 36.2989 13.2837 36.0709 12.9797C35.8253 12.6758 35.492 12.4076 35.0534 12.1931C34.6149 11.9785 34.036 11.8713 33.3519 11.8534ZM31.6854 5.66746C33.2291 5.68534 34.0009 6.36472 34.0009 7.7056C33.9658 9.10012 33.194 9.79738 31.7029 9.79738C30.1417 9.74374 29.3523 9.06436 29.3523 7.75924C29.3523 7.20501 29.5453 6.72229 29.9137 6.29321C30.2996 5.882 30.8785 5.66746 31.6854 5.66746Z" fill="white"/>
<path d="M46.5074 8.70679C46.5074 6.02503 44.7707 4.07628 41.9465 4.07628C39.1573 4.07628 37.368 6.1323 37.368 8.76043C37.368 11.5137 39.1748 13.3731 41.9114 13.3731C44.6304 13.3731 46.5074 11.4064 46.5074 8.70679ZM44.9286 8.72467C44.9286 10.3516 43.9287 11.907 41.9465 11.907C39.9642 11.907 38.9293 10.4946 38.9293 8.76043C38.9293 7.13349 39.8414 5.54231 41.9465 5.54231C44.0515 5.54231 44.9286 7.09774 44.9286 8.72467Z" fill="white"/>
<path d="M51.7823 13.1764C53.3435 9.01073 53.7996 7.59833 54.1154 6.61502C54.4136 7.61621 54.8697 8.99285 56.4309 13.1764H57.7817L60.9041 4.32658H59.2552C57.5887 9.17163 57.308 10.1192 57.0624 11.0489C56.7818 10.1371 56.4309 9.08224 54.7294 4.32658H53.5891C51.8525 9.17163 51.5367 10.1371 51.2736 11.0667C51.0105 10.1013 50.7298 9.15375 49.0458 4.32658H47.3091L50.3965 13.1764H51.7823Z" fill="white"/>
<path d="M69.85 12.3182V10.7628C69.008 11.317 68.1659 11.907 66.3416 11.907C64.447 11.907 63.3068 10.6734 63.2893 9.17163H70.2359C70.2534 8.99285 70.2534 8.51013 70.2534 8.33135C70.2534 5.70322 68.7799 4.09416 66.2188 4.09416C63.3594 4.09416 61.728 6.18594 61.728 8.70679C61.728 11.4064 63.3068 13.3731 66.2012 13.3731C68.0432 13.3731 69.1483 12.7652 69.85 12.3182ZM63.377 7.83075C63.5173 6.40048 64.6049 5.4708 66.2012 5.4708C67.7976 5.4708 68.7624 6.50775 68.7624 7.83075H63.377Z" fill="white"/>
<path d="M72.1763 12.7294C73.2289 13.087 74.4042 13.3552 75.6321 13.3552C78.0354 13.3552 80.5263 12.1573 80.5263 8.47437C80.5263 5.75685 79.1931 4.1478 76.825 4.1478C75.5619 4.1478 74.2989 4.8093 73.7025 5.89988V0H72.1763V12.7294ZM73.7376 11.5137V8.51013C73.7376 7.84863 73.8779 7.25864 74.141 6.88319C74.6322 6.20381 75.4391 5.6317 76.3689 5.6317C78.0178 5.6317 78.9475 6.6329 78.9475 8.58164C78.9475 10.9774 77.4916 11.8892 75.7724 11.8892C74.8076 11.8892 74.2112 11.7104 73.7376 11.5137Z" fill="white"/>
<path d="M42.8232 9.66537C42.1696 10.3191 40.3112 10.5027 40.3112 10.5027C40.3112 10.5027 40.4948 8.64433 41.1485 7.99064C41.8022 7.33696 43.6606 7.15328 43.6606 7.15328C43.6606 7.15328 43.4769 9.01168 42.8232 9.66537Z" fill="#59D87C"/>
</svg>
