<svg width="160" height="160" viewBox="0 0 160 160" fill="none" xmlns="http://www.w3.org/2000/svg">
<path d="M159.897 78.4275C159.897 82.6369 159.897 86.8997 159.59 91.1091C159.499 92.4567 158.918 93.718 157.966 94.6379C157.014 95.5579 155.76 96.0678 154.46 96.0645C152.926 96.1044 151.398 96.2826 149.894 96.5974C147.141 97.3255 144.599 98.7395 142.49 100.717C140.38 102.695 138.767 105.176 137.788 107.947C136.147 112.205 136.147 116.956 137.788 121.215C138.785 123.84 140.326 126.204 142.302 128.141C142.749 128.542 143.114 129.033 143.373 129.585C143.632 130.137 143.78 130.737 143.809 131.35C143.837 131.963 143.746 132.575 143.54 133.15C143.334 133.726 143.017 134.251 142.61 134.695C141.379 136.134 140.25 137.679 138.916 139.065C136.146 141.907 133.325 144.677 130.452 147.377C129.669 148.082 128.667 148.47 127.631 148.47C126.594 148.47 125.593 148.082 124.809 147.377C124.142 146.791 123.578 145.992 122.86 145.405C119.049 142.206 114.203 140.643 109.317 141.036C106.246 141.249 103.294 142.357 100.802 144.233C98.7519 145.617 97.0044 147.433 95.6717 149.562C94.0512 152.383 94.6433 155.355 93.617 158.298C92.5907 161.24 70.3546 159.475 68.6525 159.475C66.9504 159.475 66.9275 156.887 66.9504 156.532C66.6477 153.096 65.9705 151.108 63.9453 148.372C61.9202 145.637 59.1889 143.555 56.0693 142.368C53.0786 141.167 49.8134 140.907 46.6816 141.622C42.8061 142.229 39.2148 144.094 36.4219 146.951C36.0495 147.436 35.5817 147.834 35.0497 148.117C34.5177 148.4 33.9337 148.562 33.3367 148.592C32.7396 148.623 32.1432 148.52 31.5872 148.293C31.0312 148.065 30.5284 147.716 30.1122 147.27C28.2101 145.748 26.4105 144.092 24.7259 142.315C22.2123 139.651 19.8525 136.987 17.4928 134.109C16.8898 133.273 16.6037 132.235 16.6888 131.194C16.774 130.153 17.2244 129.18 17.9545 128.461C21.011 125.604 23.034 121.747 23.6873 117.53C24.3406 113.313 23.5847 108.991 21.5454 105.283C20.003 102.456 17.7515 100.118 15.0305 98.5156C11.9037 96.6997 8.34893 95.832 4.77076 96.0112C3.71555 96.0565 2.68416 95.6774 1.89113 94.953C1.0981 94.2285 0.604488 93.2143 0.512977 92.1215C0.512977 89.6704 0.205194 87.2194 0 84.7683C0 84.3953 0 83.969 0 83.5961V81.6778C0 81.2515 0 80.8253 0 80.4523C0 78.1611 -1.01793e-05 75.9232 0.410378 73.6852C0.529012 72.8951 0.828049 72.1461 1.28246 71.5006C1.85513 70.8023 2.57261 70.2477 3.3811 69.8786C4.18959 69.5094 5.06808 69.3353 5.95063 69.3692C8.26526 69.3875 10.5601 68.9256 12.7006 68.0106C14.8412 67.0957 16.7843 65.746 18.4162 64.0408C20.0837 62.3326 21.3986 60.2893 22.2806 58.0356C23.1626 55.7819 23.5932 53.3652 23.546 50.933C23.5085 48.3826 22.9705 45.8669 21.9649 43.5398C20.9594 41.2128 19.5075 39.1232 17.698 37.3988C17.2911 37.003 16.9671 36.5243 16.7465 35.9925C16.5258 35.4608 16.4131 34.8874 16.4155 34.3084C16.4467 32.9735 16.9593 31.6994 17.8519 30.7383C21.3329 26.0926 25.3468 21.9055 29.8044 18.2699C30.227 17.8771 30.7217 17.5771 31.2587 17.388C31.7957 17.1988 32.364 17.1244 32.9295 17.1692C33.4949 17.214 34.0458 17.3771 34.549 17.6486C35.0522 17.9202 35.4973 18.2946 35.8576 18.7495C36.2463 19.2158 36.6756 19.6439 37.1401 20.0283C39.2248 21.9068 41.6943 23.267 44.361 24.0056C47.0276 24.7442 49.8213 24.8419 52.5297 24.291C55.5039 23.7569 58.2895 22.4161 60.6046 20.4044C62.9197 18.3927 64.6821 15.7815 65.7134 12.8349C66.6187 10.3169 67.0202 7.63354 66.8932 4.94888C66.8682 3.86354 67.2239 2.80578 67.8939 1.97255C68.564 1.13933 69.5028 0.587461 70.5354 0.419753C75.8054 -0.139918 81.1167 -0.139918 86.3867 0.419753C87.6274 0.532111 88.8504 0.800502 90.0289 1.21902C90.7226 1.51356 91.3169 2.01483 91.7368 2.65962C92.1568 3.30442 92.3835 4.06388 92.3886 4.84233C92.2444 8.3033 92.988 11.7419 94.5431 14.8065C96.3031 18.1633 99.0294 20.8647 102.34 22.5326C105.149 23.9897 108.295 24.599 111.42 24.291C115.977 23.9085 120.252 21.8489 123.475 18.483C124.138 17.6523 125.082 17.1174 126.113 16.9885C127.143 16.8596 128.183 17.1466 129.016 17.7903C130.554 18.9636 132.027 20.2267 133.427 21.5735C136.722 24.4891 139.729 27.7376 142.405 31.2712C143.052 32.0688 143.407 33.0786 143.407 34.1219C143.407 35.1652 143.052 36.1749 142.405 36.9726L141.327 38.0915C139.275 40.2484 137.772 42.9033 136.957 45.8157C136.142 48.728 136.04 51.8056 136.659 54.7694C137.309 58.4649 139.112 61.8354 141.789 64.3605C143.401 65.8789 145.259 67.0877 147.278 67.9305C149.724 68.9544 152.336 69.479 154.973 69.4758C155.523 69.4172 156.079 69.4732 156.608 69.6405C157.137 69.8079 157.628 70.0833 158.053 70.4506C158.479 70.8178 158.829 71.2695 159.084 71.7792C159.339 72.2889 159.493 72.8463 159.538 73.4188C159.83 75.1792 159.984 76.9611 160 78.7472" fill="white"/>
</svg>
